<svg width="367" height="429" viewBox="0 0 367 429" fill="none" xmlns="http://www.w3.org/2000/svg">
<circle cx="31" cy="105" r="2" fill="#FAF9F8"/>
<circle cx="239" cy="68" r="2" fill="#FAF9F8"/>
<circle cx="250" cy="2" r="2" fill="#FAF9F8"/>
<circle cx="344" cy="2" r="2" fill="#FAF9F8"/>
<circle cx="328" cy="137" r="2" fill="#FAF9F8"/>
<circle cx="102" cy="55" r="2" fill="#FAF9F8"/>
<circle cx="165" cy="23" r="2" fill="#FAF9F8"/>
<circle cx="38" cy="2" r="2" fill="#FAF9F8"/>
<path d="M21.1459 381.039C19.58 381.265 19.1652 391.188 19.6802 396.791C16.9501 397.593 10.6651 401.228 7.30109 403.597C3.09606 406.557 19.1306 408.036 20.7784 408.419C22.4262 408.803 21.6025 424.048 24.3149 424.257C27.8645 424.532 31.3684 415.652 33.8461 410.368C39.5784 412.442 52.0542 414.214 51.4399 410.878C50.6111 406.378 42.6593 401.848 40.9101 400.14C39.1609 398.431 48.3541 390.368 48.1726 387.056C47.991 383.744 35.0879 390.094 33.6169 390.054C32.146 390.014 23.1034 380.756 21.1459 381.039Z" fill="#2B3A60"/>
<path d="M24.2333 377.797C22.6674 378.023 22.2526 387.946 22.7676 393.55C20.0375 394.351 13.7525 397.986 10.3885 400.355C6.18346 403.316 22.218 404.794 23.8658 405.178C25.5136 405.561 24.6899 420.806 27.4023 421.016C30.9519 421.29 34.4558 412.411 36.9335 407.126C42.6658 409.2 55.1416 410.972 54.5273 407.636C53.6985 403.136 45.7468 398.606 43.9975 396.898C42.2483 395.19 51.4415 387.126 51.26 383.814C51.0784 380.502 38.1753 386.852 36.7043 386.812C35.2334 386.772 26.1908 377.514 24.2333 377.797Z" fill="#FFDC88"/>
<path d="M352.696 44.14C352.538 42.5657 342.643 41.7184 337.022 41.9884C336.341 39.2259 332.983 32.7884 330.764 29.3242C327.989 24.994 325.813 40.9488 325.357 42.5783C324.902 44.2078 309.708 42.7198 309.38 45.4205C308.951 48.9547 317.669 52.8427 322.84 55.5485C320.519 61.1849 318.204 73.5715 321.563 73.1034C326.096 72.4717 330.968 64.7251 332.751 63.0521C334.534 61.379 342.189 70.9153 345.506 70.8784C348.822 70.8415 343.041 57.6736 343.145 56.2058C343.249 54.738 352.893 46.1079 352.696 44.14Z" fill="#2B3A60"/>
<path d="M355.8 47.3658C355.642 45.7915 345.747 44.9443 340.126 45.2142C339.445 42.4518 336.087 36.0142 333.868 32.5501C331.093 28.2199 328.917 44.1746 328.461 45.8041C328.006 47.4336 312.812 45.9457 312.484 48.6463C312.055 52.1805 320.773 56.0685 325.944 58.7744C323.623 64.4108 321.308 76.7974 324.667 76.3292C329.2 75.6975 334.072 67.9509 335.855 66.2779C337.638 64.6048 345.293 74.1411 348.61 74.1042C351.926 74.0674 346.145 60.8994 346.249 59.4317C346.353 57.9639 355.997 49.3337 355.8 47.3658Z" fill="#FFDC88"/>
</svg>
