<svg width="499" height="828" viewBox="0 0 499 828" fill="none" xmlns="http://www.w3.org/2000/svg">
<path d="M48.2224 137.488C46.5554 136.177 36.5422 144.945 31.5795 150.625C28.2785 148.716 18.9413 145.976 13.533 144.9C6.7726 143.556 20.1586 160.484 21.3092 162.438C22.4598 164.392 6.90328 177.683 9.20674 180.51C12.2211 184.208 24.0777 179.402 31.4962 176.922C34.7821 184.402 44.5937 198.148 47.2632 194.469C50.8649 189.505 47.9116 177.6 47.9526 174.324C47.9936 171.047 64.3171 172.516 67.3637 169.279C70.4102 166.041 52.3207 159.388 51 157.924C49.6793 156.459 50.3061 139.126 48.2224 137.488Z" fill="#2B3A60"/>
<path d="M54.2224 137.488C52.5554 136.177 42.5422 144.945 37.5795 150.625C34.2785 148.716 24.9413 145.976 19.533 144.9C12.7726 143.556 26.1586 160.484 27.3092 162.438C28.4598 164.392 12.9033 177.683 15.2067 180.51C18.2211 184.208 30.0777 179.402 37.4962 176.922C40.7821 184.402 50.5937 198.148 53.2632 194.469C56.8649 189.505 53.9116 177.6 53.9526 174.324C53.9936 171.047 70.3171 172.516 73.3637 169.279C76.4102 166.041 58.3207 159.388 57 157.924C55.6793 156.459 56.3061 139.126 54.2224 137.488Z" fill="#FFDC88"/>
<path d="M166.146 485.039C164.58 485.265 164.165 495.188 164.68 500.791C161.95 501.593 155.665 505.228 152.301 507.597C148.096 510.557 164.131 512.036 165.778 512.419C167.426 512.803 166.603 528.048 169.315 528.257C172.864 528.532 176.368 519.652 178.846 514.368C184.578 516.442 197.054 518.214 196.44 514.878C195.611 510.378 187.659 505.848 185.91 504.14C184.161 502.431 193.354 494.368 193.173 491.056C192.991 487.744 180.088 494.094 178.617 494.054C177.146 494.014 168.103 484.756 166.146 485.039Z" fill="#2B3A60"/>
<path d="M169.233 481.797C167.667 482.023 167.253 491.946 167.768 497.549C165.037 498.351 158.753 501.986 155.388 504.355C151.183 507.316 167.218 508.794 168.866 509.177C170.514 509.561 169.69 524.806 172.402 525.015C175.952 525.29 179.456 516.41 181.934 511.126C187.666 513.2 200.142 514.972 199.527 511.636C198.699 507.136 190.747 502.606 188.998 500.898C187.248 499.189 196.441 491.126 196.26 487.814C196.078 484.502 183.175 490.852 181.704 490.812C180.233 490.772 171.191 481.514 169.233 481.797Z" fill="#FFDC88"/>
<path d="M268.71 39.8008C267.162 40.2687 268.259 50.3588 269.635 55.9429C266.999 57.1696 261.203 61.8031 258.165 64.7107C254.368 68.3451 270.797 67.3896 272.521 67.5257C274.245 67.6617 275.741 83.1925 278.514 82.9902C282.143 82.7254 284.328 73.2171 286.024 67.4988C292.134 68.7186 305.011 68.6035 303.881 65.3266C302.356 60.9055 293.629 57.5425 291.6 56.0835C289.571 54.6246 297.63 45.0715 296.94 41.7524C296.251 38.4333 284.182 46.8215 282.69 47.0058C281.197 47.19 270.645 39.2161 268.71 39.8008Z" fill="#2B3A60"/>
<path d="M274.357 39.8008C272.809 40.2687 273.905 50.3588 275.282 55.9429C272.645 57.1696 266.849 61.8031 263.812 64.7107C260.015 68.3451 276.444 67.3896 278.168 67.5257C279.891 67.6617 281.388 83.1925 284.161 82.9902C287.79 82.7254 289.974 73.2171 291.671 67.4988C297.78 68.7186 310.658 68.6035 309.528 65.3266C308.003 60.9055 299.275 57.5425 297.247 56.0835C295.218 54.6246 303.276 45.0715 302.587 41.7524C301.898 38.4333 289.829 46.8215 288.336 47.0058C286.843 47.19 276.292 39.2161 274.357 39.8008Z" fill="#FFDC88"/>
<circle cx="57" cy="83" r="2" fill="#FAF9F8"/>
<circle cx="90" cy="541" r="2" fill="#FAF9F8"/>
<circle cx="262" cy="506" r="2" fill="#FAF9F8"/>
<circle cx="135" cy="161" r="2" fill="#FAF9F8"/>
<circle cx="231" cy="101" r="2" fill="#FAF9F8"/>
<circle cx="211" cy="640" r="2" fill="#FAF9F8"/>
<circle cx="229" cy="20" r="2" fill="#FAF9F8"/>
<circle cx="315" cy="2" r="2" fill="#FAF9F8"/>
<circle cx="299" cy="137" r="2" fill="#FAF9F8"/>
<circle cx="152" cy="83" r="2" fill="#FAF9F8"/>
<circle cx="139" cy="610" r="2" fill="#FAF9F8"/>
<circle cx="117" cy="18" r="2" fill="#FAF9F8"/>
<circle cx="36" cy="610" r="2" fill="#FAF9F8"/>
<circle cx="8" cy="27" r="2" fill="#FAF9F8"/>
<circle cx="4" cy="545" r="2" fill="#FAF9F8"/>
<circle cx="346" cy="675" r="153" fill="#A6A097"/>
<path d="M290.395 552.33C280.612 555.862 284.192 560.915 287.205 563H307.941C316.182 563 318.841 559.321 317.777 552.33C316.714 545.34 302.624 547.915 290.395 552.33Z" fill="#958D80"/>
<path d="M260.965 572.021C258.158 574.572 262.135 577.07 264.474 578H283.522C293.046 578 285.026 572.021 281.016 569.231C277.006 566.442 264.474 568.833 260.965 572.021Z" fill="#958D80"/>
</svg>
