<svg width="67" height="58" viewBox="0 0 67 58" fill="none" xmlns="http://www.w3.org/2000/svg">
<g clip-path="url(#clip0)">
<path d="M31.8594 2.44525C29.8406 1.79609 23.5019 13.4997 20.8241 20.5504C17.0653 19.9084 7.35808 20.5869 1.91334 21.4595C-4.89258 22.5502 13.5451 33.7665 15.3034 35.1983C17.0617 36.6301 7.09851 54.5015 10.2411 56.3504C14.3537 58.7699 23.7985 50.1399 29.8917 45.2352C35.5738 51.1055 49.5534 60.5811 50.7767 56.2032C52.4272 50.2964 45.5182 40.1622 44.4171 37.0759C43.3161 33.9896 59.1315 29.69 60.862 25.5952C62.5925 21.5004 43.3183 21.5534 41.5707 20.6396C39.823 19.7257 34.3828 3.2567 31.8594 2.44525Z" fill="#2B3A60"/>
<path d="M37.4849 0.358582C35.4661 -0.290577 29.1274 11.413 26.4496 18.4637C22.6907 17.8217 12.9836 18.5003 7.53883 19.3728C0.732912 20.4635 19.1706 31.6798 20.9289 33.1116C22.6872 34.5434 12.724 52.4149 15.8666 54.2637C19.9791 56.6832 29.424 48.0532 35.5172 43.1485C41.1993 49.0188 55.1789 58.4945 56.4022 54.1165C58.0527 48.2098 51.1437 38.0755 50.0426 34.9892C48.9416 31.903 64.757 27.6033 66.4875 23.5085C68.218 19.4137 48.9438 19.4667 47.1961 18.5529C45.4485 17.6391 40.0083 1.17003 37.4849 0.358582Z" fill="#FFDC88"/>
</g>
<defs>
<clipPath id="clip0">
<rect width="67" height="58" fill="white"/>
</clipPath>
</defs>
</svg>
