<svg width="117" height="116" viewBox="0 0 117 116" fill="none" xmlns="http://www.w3.org/2000/svg">
<path fill-rule="evenodd" clip-rule="evenodd" d="M58.0408 2.4507C27.3384 2.4507 2.4507 27.3218 2.4507 58C2.4507 88.6782 27.3384 113.549 58.0408 113.549C88.7433 113.549 113.631 88.6782 113.631 58C113.631 27.3218 88.7433 2.4507 58.0408 2.4507ZM0 58C0 25.9667 25.9866 0 58.0408 0C90.0951 0 116.082 25.9667 116.082 58C116.082 90.0333 90.0951 116 58.0408 116C25.9866 116 0 90.0333 0 58Z" fill="#FF8888"/>
<path fill-rule="evenodd" clip-rule="evenodd" d="M18.0982 85.9287C21.4301 90.5558 25.1548 94.294 29.2668 97.1617C32.3577 99.3173 36.7402 101.495 40.329 102.729C42.14 103.352 43.6432 103.697 44.6378 103.725C44.9222 103.733 45.116 103.714 45.2402 103.69C45.2036 103.603 45.1366 103.48 45.014 103.317C44.7664 102.986 44.366 102.591 43.7879 102.122C42.6298 101.184 40.9652 100.115 38.9347 98.8446C38.6538 98.6689 38.3668 98.4898 38.0742 98.3072C34.1894 95.8831 29.3238 92.8468 24.983 88.9765C20.2278 84.7368 17.399 79.5433 15.2792 75.5498C15.2082 75.4159 15.1381 75.2838 15.0689 75.1533C14.0856 73.299 13.2866 71.7921 12.5043 70.7124C11.6805 69.5753 11.1201 69.263 10.7186 69.2346C10.7158 69.2526 10.7131 69.2729 10.7107 69.2957C10.6597 69.7847 10.8041 70.7277 11.3304 72.2537C12.3556 75.2268 14.5935 79.7703 18.0982 85.9287ZM10.7484 69.115C10.7485 69.115 10.7481 69.1158 10.7473 69.1172C10.748 69.1157 10.7484 69.115 10.7484 69.115ZM8.97841 67.4299C9.45982 66.9497 10.076 66.7817 10.6566 66.7817C12.338 66.7817 13.5552 67.9857 14.4889 69.2746C15.3772 70.5006 16.2561 72.1594 17.2021 73.9448C17.2822 74.0959 17.3628 74.248 17.4439 74.4008C19.5642 78.3953 22.2195 83.2292 26.6139 87.1473C30.7917 90.8722 35.4898 93.8049 39.3953 96.2428C39.6795 96.4202 39.9594 96.5949 40.2347 96.7672C42.238 98.0208 44.0355 99.1685 45.3309 100.218C45.9797 100.744 46.554 101.286 46.9743 101.846C47.39 102.4 47.7341 103.078 47.7341 103.851C47.7341 104.241 47.6449 104.638 47.4276 104.999C47.2109 105.36 46.9077 105.617 46.5835 105.793C45.9731 106.124 45.2382 106.194 44.5675 106.175C43.195 106.136 41.4092 105.692 39.5322 105.047C35.7451 103.745 31.1561 101.467 27.8649 99.1718C23.4829 96.1158 19.5532 92.1544 16.0703 87.3064L16.0326 87.2539L16.0006 87.1978C12.4687 80.9952 10.1214 76.2653 9.01355 73.0526C8.47166 71.4813 8.16273 70.1012 8.27327 69.0415C8.33084 68.4896 8.51591 67.8912 8.97841 67.4299Z" fill="#FF8888"/>
<path fill-rule="evenodd" clip-rule="evenodd" d="M83.3243 16.2155C80.6173 16.2155 78.4229 18.4099 78.4229 21.1169C78.4229 23.8239 80.6173 26.0183 83.3243 26.0183C86.0313 26.0183 88.2257 23.8239 88.2257 21.1169C88.2257 18.4099 86.0313 16.2155 83.3243 16.2155ZM75.9722 21.1169C75.9722 17.0564 79.2638 13.7648 83.3243 13.7648C87.3847 13.7648 90.6764 17.0564 90.6764 21.1169C90.6764 25.1773 87.3847 28.469 83.3243 28.469C79.2638 28.469 75.9722 25.1773 75.9722 21.1169Z" fill="#FF8888"/>
<path fill-rule="evenodd" clip-rule="evenodd" d="M95.8224 31.4916C94.875 31.4916 94.107 32.2596 94.107 33.2071C94.107 34.1545 94.875 34.9226 95.8224 34.9226C96.7699 34.9226 97.5379 34.1545 97.5379 33.2071C97.5379 32.2596 96.7699 31.4916 95.8224 31.4916ZM91.6562 33.2071C91.6562 30.9062 93.5215 29.0409 95.8224 29.0409C98.1234 29.0409 99.9886 30.9062 99.9886 33.2071C99.9886 35.508 98.1234 37.3733 95.8224 37.3733C93.5215 37.3733 91.6562 35.508 91.6562 33.2071Z" fill="#FF8888"/>
<path fill-rule="evenodd" clip-rule="evenodd" d="M45.3235 41.8896C47.0767 35.6662 48.6819 32.7105 50.1391 33.0223C52.3248 33.4901 54.7436 42.2058 56.1781 41.8896C57.6126 41.5734 68.6753 42.0824 64.4445 45.9577C60.2137 49.8331 57.4755 49.0314 58.1115 50.5841C58.7475 52.1368 63.1177 57.4851 60.5742 59.1588C58.8785 60.2745 55.4001 58.6855 50.1391 54.3917C45.3889 59.0322 42.3213 60.7177 40.9362 59.4481C39.5511 58.1785 40.2074 54.774 42.9049 49.2347C36.6598 45.2267 34.6509 42.7784 36.8784 41.8896C39.1059 41.0009 41.9209 41.0009 45.3235 41.8896Z" fill="#FDFF88"/>
<path fill-rule="evenodd" clip-rule="evenodd" d="M51.6751 43.8289C51.5567 43.7847 51.4249 43.8448 51.3806 43.9632C51.3094 44.1538 51.2062 44.2762 51.0779 44.3509C50.9469 44.4273 50.7671 44.4673 50.5217 44.4501C50.276 44.4329 50.1068 44.3684 49.9929 44.2765C49.8818 44.187 49.8021 44.0544 49.7651 43.8574C49.7418 43.7332 49.6222 43.6514 49.4979 43.6747C49.3737 43.698 49.2919 43.8177 49.3152 43.9419C49.3684 44.2254 49.4947 44.4628 49.7055 44.6328C49.9135 44.8006 50.182 44.8852 50.4898 44.9067C50.7979 44.9283 51.0763 44.8817 51.3084 44.7464C51.5433 44.6095 51.7079 44.395 51.8094 44.1235C51.8537 44.0051 51.7935 43.8732 51.6751 43.8289Z" fill="#1D2541"/>
<path d="M51.9901 43.2327C51.8136 43.2203 51.6805 43.0672 51.6929 42.8907C51.7052 42.7141 51.8583 42.581 52.0348 42.5934C52.2114 42.6057 52.3445 42.7588 52.3321 42.9354C52.3198 43.1119 52.1667 43.245 51.9901 43.2327Z" fill="#1D2541"/>
<path d="M49.1786 43.0939C49.0021 43.0815 48.869 42.9284 48.8813 42.7519C48.8937 42.5753 49.0468 42.4422 49.2233 42.4546C49.3999 42.4669 49.533 42.62 49.5206 42.7966C49.5083 42.9731 49.3552 43.1062 49.1786 43.0939Z" fill="#1D2541"/>
<path fill-rule="evenodd" clip-rule="evenodd" d="M77.5212 75.8896C75.7679 69.6662 74.1627 66.7105 72.7056 67.0223C70.5198 67.4901 67.3267 74.9769 66.7162 74.9769C66.1057 74.9769 54.8336 72.6513 58.871 77.3051C62.9084 81.9589 65.7934 81.682 65.1574 83.2347C64.5214 84.7874 59.3468 90.1054 61.8903 91.7791C63.586 92.8948 66.8279 91.6545 71.6161 88.0581C76.1293 92.7281 79.0785 94.4284 80.4635 93.1588C81.8486 91.8892 81.674 88.5811 79.9398 83.2347C86.3926 80.8322 88.5053 79.1866 86.2779 78.2978C84.0504 77.4091 81.1315 76.6064 77.5212 75.8896Z" fill="#FF8888"/>
<path fill-rule="evenodd" clip-rule="evenodd" d="M71.3442 76.8312C71.4685 76.8082 71.5879 76.8903 71.6109 77.0146C71.648 77.2147 71.7284 77.3531 71.8417 77.449C71.9574 77.547 72.1276 77.6175 72.3723 77.6433C72.6172 77.669 72.795 77.6349 72.9232 77.5642C73.0481 77.4952 73.1497 77.3785 73.2203 77.191C73.2648 77.0727 73.3968 77.0129 73.5151 77.0574C73.6334 77.102 73.6932 77.234 73.6487 77.3523C73.547 77.6222 73.3814 77.8341 73.1443 77.965C72.9104 78.094 72.6312 78.1307 72.3244 78.0985C72.0172 78.0662 71.7511 77.972 71.546 77.7984C71.3385 77.6228 71.2136 77.383 71.1608 77.098C71.1378 76.9737 71.2199 76.8543 71.3442 76.8312Z" fill="#1D2541"/>
<path d="M71.1384 76.1893C71.3144 76.2078 71.4721 76.0801 71.4906 75.9041C71.5091 75.7281 71.3814 75.5704 71.2054 75.5519C71.0294 75.5334 70.8717 75.6611 70.8532 75.8371C70.8347 76.0131 70.9624 76.1708 71.1384 76.1893Z" fill="#1D2541"/>
<path d="M73.9314 76.5409C74.1074 76.5594 74.265 76.4318 74.2835 76.2558C74.302 76.0798 74.1744 75.9221 73.9984 75.9036C73.8224 75.8851 73.6647 76.0128 73.6462 76.1888C73.6277 76.3648 73.7554 76.5225 73.9314 76.5409Z" fill="#1D2541"/>
</svg>
