<svg width="97" height="96" viewBox="0 0 97 96" fill="none" xmlns="http://www.w3.org/2000/svg">
<circle cx="48" cy="48" r="44" fill="white" fill-opacity="0.25"/>
<path fill-rule="evenodd" clip-rule="evenodd" d="M48.0317 4.90141C24.2108 4.90141 4.90141 24.1979 4.90141 48C4.90141 71.802 24.2108 91.0986 48.0317 91.0986C71.8525 91.0986 91.162 71.802 91.162 48C91.162 24.1979 71.8525 4.90141 48.0317 4.90141ZM3 48C3 23.1465 23.162 3 48.0317 3C72.9014 3 93.0634 23.1465 93.0634 48C93.0634 72.8535 72.9014 93 48.0317 93C23.162 93 3 72.8535 3 48Z" fill="#FF8888"/>
<path fill-rule="evenodd" clip-rule="evenodd" d="M17.0415 69.6689C19.6266 73.2588 22.5165 76.1592 25.7069 78.3841C28.105 80.0566 31.5052 81.7464 34.2896 82.7038C35.6947 83.1869 36.861 83.4544 37.6327 83.4765C37.8533 83.4829 38.0037 83.4676 38.1 83.4493C38.0717 83.3817 38.0196 83.2862 37.9245 83.1594C37.7324 82.9034 37.4218 82.5963 36.9733 82.2329C36.0747 81.5047 34.7832 80.6758 33.2078 79.6899C32.9899 79.5535 32.7672 79.4146 32.5402 79.2729C29.5262 77.3921 25.7511 75.0364 22.3832 72.0335C18.6939 68.7441 16.4991 64.7147 14.8545 61.6163C14.7993 61.5124 14.7449 61.4099 14.6913 61.3086C13.9284 59.87 13.3084 58.7009 12.7015 57.8631C12.0624 56.9809 11.6275 56.7386 11.316 56.7166C11.3138 56.7305 11.3118 56.7463 11.3099 56.764C11.2704 57.1434 11.3824 57.875 11.7907 59.059C12.5861 61.3657 14.3224 64.8908 17.0415 69.6689ZM11.3392 56.6238C11.3392 56.6238 11.3389 56.6244 11.3383 56.6255C11.3389 56.6243 11.3392 56.6237 11.3392 56.6238ZM9.96588 55.3163C10.3394 54.9438 10.8174 54.8135 11.2679 54.8135C12.5725 54.8135 13.5168 55.7476 14.2413 56.7476C14.9304 57.6988 15.6124 58.9858 16.3463 60.371C16.4085 60.4883 16.471 60.6063 16.5339 60.7248C18.179 63.824 20.2392 67.5744 23.6486 70.6143C26.89 73.5044 30.5351 75.7797 33.5652 77.6712C33.7857 77.8088 34.0029 77.9444 34.2164 78.078C35.7708 79.0507 37.1653 79.9412 38.1704 80.7556C38.6737 81.1635 39.1193 81.5837 39.4454 82.0183C39.7679 82.4482 40.035 82.9741 40.035 83.5743C40.035 83.8768 39.9657 84.1846 39.7972 84.465C39.629 84.7447 39.3938 84.9446 39.1423 85.0809C38.6686 85.3377 38.0985 85.3921 37.5781 85.3772C36.5132 85.3466 35.1277 85.0026 33.6714 84.5019C30.7331 83.4916 27.1727 81.7246 24.6192 79.9437C21.2193 77.5726 18.1705 74.4992 15.4682 70.7377L15.4389 70.697L15.4141 70.6535C12.6739 65.8412 10.8527 62.1714 9.99314 59.6788C9.57271 58.4597 9.33302 57.3889 9.41879 56.5667C9.46345 56.1385 9.60704 55.6742 9.96588 55.3163Z" fill="#FF8888"/>
<path fill-rule="evenodd" clip-rule="evenodd" d="M67.6481 15.5809C65.5478 15.5809 63.8453 17.2834 63.8453 19.3837C63.8453 21.4839 65.5478 23.1865 67.6481 23.1865C69.7483 23.1865 71.4509 21.4839 71.4509 19.3837C71.4509 17.2834 69.7483 15.5809 67.6481 15.5809ZM61.9438 19.3837C61.9438 16.2333 64.4977 13.6794 67.6481 13.6794C70.7984 13.6794 73.3523 16.2333 73.3523 19.3837C73.3523 22.534 70.7984 25.0879 67.6481 25.0879C64.4977 25.0879 61.9438 22.534 61.9438 19.3837Z" fill="#FF8888"/>
<path fill-rule="evenodd" clip-rule="evenodd" d="M77.345 27.4331C76.6099 27.4331 76.014 28.029 76.014 28.7641C76.014 29.4992 76.6099 30.0951 77.345 30.0951C78.0801 30.0951 78.676 29.4992 78.676 28.7641C78.676 28.029 78.0801 27.4331 77.345 27.4331ZM74.1126 28.7641C74.1126 26.9789 75.5598 25.5317 77.345 25.5317C79.1302 25.5317 80.5774 26.9789 80.5774 28.7641C80.5774 30.5493 79.1302 31.9965 77.345 31.9965C75.5598 31.9965 74.1126 30.5493 74.1126 28.7641Z" fill="#FF8888"/>
</svg>
