<svg width="85" height="85" viewBox="0 0 85 85" fill="none" xmlns="http://www.w3.org/2000/svg">
<path fill-rule="evenodd" clip-rule="evenodd" d="M9.20933 49.2871C12.9606 67.7008 30.9179 79.5884 49.3171 75.8401C67.7164 72.0918 79.592 54.1266 75.8407 35.7128C72.0894 17.2991 54.1322 5.41145 35.7329 9.15977C17.3337 12.9081 5.45806 30.8733 9.20933 49.2871ZM49.6166 77.3099C30.4046 81.2238 11.656 68.811 7.73952 49.5865C3.82308 30.362 16.2215 11.6038 35.4335 7.68996C54.6455 3.77607 73.3941 16.1889 77.3105 35.4134C81.227 54.6379 68.8286 73.3961 49.6166 77.3099Z" fill="#FF8888"/>
<path fill-rule="evenodd" clip-rule="evenodd" d="M64.1557 63.0432C66.5237 60.4795 68.3106 57.7889 69.5281 54.9723C70.4433 52.8552 71.2141 49.9607 71.5156 47.6575C71.6678 46.4953 71.6909 45.5516 71.5865 44.9516C71.5567 44.7801 71.5212 44.6662 71.4919 44.5946C71.4441 44.6272 71.3785 44.6825 71.2955 44.776C71.1278 44.9648 70.9393 45.2533 70.729 45.6572C70.3076 46.4665 69.8702 47.5953 69.3562 48.9684C69.2851 49.1583 69.2128 49.3523 69.139 49.5501C68.1598 52.1762 66.9333 55.4653 65.1424 58.5416C63.1807 61.9116 60.4115 64.2427 58.2754 66.0019C58.2038 66.0609 58.1331 66.1191 58.0633 66.1766C57.0714 66.9928 56.2652 67.6562 55.7132 68.2573C55.1319 68.8902 55.0131 69.2645 55.0451 69.5088C55.0562 69.5083 55.0687 69.5074 55.0827 69.506C55.3822 69.4769 55.9301 69.2751 56.781 68.773C58.4389 67.7948 60.8904 65.8976 64.1557 63.0432ZM54.9697 69.5055C54.9697 69.5055 54.9702 69.5056 54.9712 69.5059C54.9702 69.5057 54.9697 69.5055 54.9697 69.5055ZM54.1753 70.773C53.8285 70.5429 53.6525 70.1939 53.5816 69.8457C53.3761 68.8372 53.9495 67.9602 54.6084 67.2427C55.2352 66.5601 56.1227 65.8303 57.0778 65.0448C57.1587 64.9783 57.2401 64.9114 57.3218 64.8441C59.4584 63.0844 62.0332 60.9012 63.8461 57.787C65.5697 54.8262 66.7545 51.6502 67.7395 49.01C67.8112 48.8179 67.8818 48.6287 67.9514 48.4425C68.4585 47.0879 68.9272 45.8696 69.3986 44.9644C69.6346 44.5111 69.8892 44.1005 70.1739 43.78C70.4553 43.463 70.8198 43.1737 71.2838 43.0792C71.5176 43.0316 71.7665 43.0366 72.0098 43.1228C72.2525 43.2087 72.444 43.3591 72.589 43.532C72.8621 43.8577 72.9939 44.2899 73.0643 44.6945C73.2084 45.5225 73.1607 46.6477 73.0029 47.8523C72.6847 50.2827 71.8795 53.3131 70.905 55.5675C69.6075 58.569 67.7118 61.4099 65.2297 64.0911L65.2029 64.1201L65.1731 64.1461C61.8847 67.0222 59.3347 69.0079 57.5433 70.0649C56.6671 70.5819 55.8771 70.9358 55.228 70.999C54.89 71.0319 54.5085 70.994 54.1753 70.773Z" fill="#FF8888"/>
<path fill-rule="evenodd" clip-rule="evenodd" d="M14.3757 32.4415C14.7065 34.065 16.2907 35.113 17.9142 34.7823C19.5377 34.4515 20.5857 32.8673 20.255 31.2438C19.9242 29.6203 18.34 28.5723 16.7165 28.903C15.093 29.2338 14.045 30.818 14.3757 32.4415ZM18.2136 36.2521C15.7784 36.7482 13.402 35.1762 12.9059 32.741C12.4098 30.3057 13.9818 27.9294 16.417 27.4332C18.8523 26.9371 21.2286 28.5091 21.7248 30.9444C22.2209 33.3796 20.6489 35.756 18.2136 36.2521Z" fill="#FF8888"/>
<path fill-rule="evenodd" clip-rule="evenodd" d="M22.0106 23.0793C22.1263 23.6476 22.6808 24.0144 23.249 23.8986C23.8173 23.7828 24.1841 23.2284 24.0683 22.6601C23.9526 22.0919 23.3981 21.7251 22.8298 21.8409C22.2616 21.9566 21.8948 22.5111 22.0106 23.0793ZM23.5485 25.3684C22.1685 25.6495 20.8219 24.7587 20.5408 23.3788C20.2596 21.9988 21.1504 20.6522 22.5304 20.3711C23.9104 20.0899 25.257 20.9807 25.5381 22.3607C25.8193 23.7407 24.9285 25.0873 23.5485 25.3684Z" fill="#FF8888"/>
<path fill-rule="evenodd" clip-rule="evenodd" d="M49.5212 38.8896C47.7679 32.6662 46.1627 29.7105 44.7056 30.0223C42.5198 30.4901 39.3267 37.9769 38.7162 37.9769C38.1057 37.9769 26.8336 35.6513 30.871 40.3051C34.9084 44.9589 37.7934 44.682 37.1574 46.2347C36.5214 47.7874 31.3468 53.1054 33.8903 54.7791C35.586 55.8948 38.8279 54.6545 43.6161 51.0581C48.1293 55.7281 51.0785 57.4284 52.4635 56.1588C53.8486 54.8892 53.674 51.5811 51.9398 46.2347C58.3926 43.8322 60.5053 42.1866 58.2779 41.2978C56.0504 40.4091 53.1315 39.6064 49.5212 38.8896Z" fill="#88C6FF"/>
<path fill-rule="evenodd" clip-rule="evenodd" d="M43.3442 39.8312C43.4685 39.8082 43.5879 39.8903 43.6109 40.0146C43.648 40.2147 43.7284 40.3531 43.8417 40.449C43.9574 40.547 44.1276 40.6175 44.3723 40.6433C44.6172 40.669 44.795 40.6349 44.9232 40.5642C45.0481 40.4952 45.1497 40.3785 45.2203 40.191C45.2648 40.0727 45.3968 40.0129 45.5151 40.0574C45.6334 40.102 45.6932 40.234 45.6487 40.3523C45.547 40.6222 45.3814 40.8341 45.1443 40.965C44.9104 41.094 44.6312 41.1307 44.3244 41.0985C44.0172 41.0662 43.7511 40.972 43.546 40.7984C43.3385 40.6228 43.2136 40.383 43.1608 40.098C43.1378 39.9737 43.2199 39.8543 43.3442 39.8312Z" fill="#1D2541"/>
<path d="M43.1384 39.1894C43.3144 39.2079 43.4721 39.0802 43.4906 38.9042C43.5091 38.7282 43.3814 38.5705 43.2054 38.552C43.0294 38.5336 42.8717 38.6612 42.8532 38.8372C42.8347 39.0132 42.9624 39.1709 43.1384 39.1894Z" fill="#1D2541"/>
<path d="M45.9314 39.5411C46.1074 39.5596 46.265 39.4319 46.2835 39.2559C46.302 39.0799 46.1744 38.9222 45.9984 38.9037C45.8224 38.8852 45.6647 39.0129 45.6462 39.1889C45.6277 39.3649 45.7554 39.5226 45.9314 39.5411Z" fill="#1D2541"/>
</svg>
