<svg width="186" height="186" viewBox="0 0 186 186" fill="none" xmlns="http://www.w3.org/2000/svg">
<circle cx="88" cy="133" r="2" transform="rotate(-180 88 133)" fill="#FAF9F8"/>
<circle cx="147" cy="87" r="2" transform="rotate(-180 147 87)" fill="#FAF9F8"/>
<path fill-rule="evenodd" clip-rule="evenodd" d="M143.169 54.4928C121.886 26.7865 82.1893 21.5684 54.5049 42.8347C26.8205 64.1011 21.6288 103.801 42.912 131.507C64.1951 159.213 103.892 164.432 131.576 143.165C159.26 121.899 164.452 82.1991 143.169 54.4928ZM52.806 40.6232C81.7133 18.4174 123.16 23.8678 145.38 52.7939C167.601 81.7201 162.182 123.171 133.275 145.377C104.367 167.583 62.9207 162.132 40.7004 133.206C18.4802 104.28 23.8987 62.829 52.806 40.6232Z" fill="#FF8888"/>
<path fill-rule="evenodd" clip-rule="evenodd" d="M40.1487 76.3155C38.2829 82.5298 37.4915 88.4825 37.7541 94.1811C37.9515 98.4646 39.0241 103.929 40.3983 108.023C41.0918 110.089 41.8227 111.685 42.4864 112.602C42.6762 112.864 42.8283 113.025 42.9357 113.121C42.989 113.028 43.0535 112.882 43.116 112.658C43.2422 112.206 43.3218 111.57 43.3438 110.724C43.3879 109.028 43.1982 106.785 42.9372 104.072C42.9012 103.697 42.8638 103.314 42.8258 102.923C42.3204 97.737 41.6875 91.2414 42.171 84.6412C42.7007 77.4111 45.4264 71.2582 47.5607 66.577C47.6322 66.4201 47.7029 66.2652 47.7727 66.1123C48.7644 63.9396 49.5703 62.1739 50.0025 60.7195C50.4575 59.1879 50.3509 58.4657 50.0981 58.0836C50.08 58.0936 50.0598 58.1053 50.0375 58.1189C49.5609 58.4119 48.8101 59.1958 47.7978 60.7286C45.8255 63.7148 43.2767 68.8838 40.1487 76.3155ZM50.2268 58.0277C50.2268 58.0277 50.2258 58.0279 50.224 58.0282C50.2259 58.0278 50.2268 58.0276 50.2268 58.0277ZM50.5204 55.2622C51.2875 55.3638 51.8662 55.8034 52.2687 56.3273C53.4343 57.8447 53.1915 59.7777 52.6757 61.5137C52.185 63.1652 51.2974 65.1083 50.3421 67.1996C50.2612 67.3766 50.1798 67.5548 50.0981 67.7339C47.9633 72.4163 45.4418 78.1634 44.9523 84.845C44.4869 91.1972 45.0972 97.4699 45.6045 102.684C45.6414 103.064 45.6778 103.437 45.7132 103.805C45.9706 106.482 46.1809 108.9 46.1316 110.796C46.1069 111.746 46.0163 112.64 45.8021 113.408C45.5903 114.167 45.2172 114.947 44.519 115.484C44.1673 115.754 43.7474 115.948 43.2706 116.003C42.7951 116.057 42.3524 115.962 41.9691 115.791C41.2473 115.47 40.6746 114.855 40.227 114.237C39.3111 112.971 38.4733 111.052 37.7546 108.911C36.3044 104.59 35.1785 98.8706 34.9683 94.3095C34.6885 88.2366 35.5392 81.9443 37.4998 75.4405L37.521 75.3702L37.5495 75.3024C40.6984 67.8155 43.3396 62.4185 45.4707 59.1917C46.5131 57.6134 47.5444 56.3779 48.5773 55.7431C49.1153 55.4124 49.7836 55.1646 50.5204 55.2622Z" fill="#FF8888"/>
<path fill-rule="evenodd" clip-rule="evenodd" d="M148.274 86.8507C146.398 84.4079 142.896 83.9488 140.453 85.8253C138.011 87.7018 137.551 91.2033 139.428 93.6461C141.304 96.0889 144.806 96.548 147.249 94.6715C149.692 92.795 150.151 89.2935 148.274 86.8507ZM138.755 83.6138C142.419 80.799 147.671 81.4876 150.486 85.1519C153.3 88.8161 152.612 94.0683 148.948 96.883C145.283 99.6978 140.031 99.0092 137.216 95.3449C134.402 91.6807 135.09 86.4285 138.755 83.6138Z" fill="#FF8888"/>
<path fill-rule="evenodd" clip-rule="evenodd" d="M143.153 108.719C142.496 107.864 141.27 107.703 140.415 108.36C139.56 109.017 139.4 110.242 140.056 111.097C140.713 111.952 141.939 112.113 142.794 111.456C143.649 110.799 143.809 109.574 143.153 108.719ZM138.716 106.148C140.793 104.553 143.769 104.943 145.364 107.02C146.959 109.096 146.569 112.073 144.493 113.668C142.416 115.263 139.44 114.872 137.845 112.796C136.25 110.72 136.64 107.743 138.716 106.148Z" fill="#FF8888"/>
<path fill-rule="evenodd" clip-rule="evenodd" d="M65.3235 79.8896C67.0767 73.6662 68.6819 70.7105 70.1391 71.0223C72.3248 71.4901 74.7436 80.2058 76.1781 79.8896C77.6126 79.5734 88.6753 80.0824 84.4445 83.9577C80.2137 87.8331 77.4755 87.0314 78.1115 88.5841C78.7475 90.1368 83.1177 95.4851 80.5742 97.1588C78.8785 98.2745 75.4001 96.6855 70.1391 92.3917C65.3889 97.0322 62.3213 98.7177 60.9362 97.4481C59.5511 96.1785 60.2074 92.774 62.9049 87.2347C56.6598 83.2267 54.6509 80.7784 56.8784 79.8896C59.1059 79.0009 61.9209 79.0009 65.3235 79.8896Z" fill="#FFAE88"/>
<path fill-rule="evenodd" clip-rule="evenodd" d="M71.6751 81.8291C71.5567 81.7848 71.4249 81.8449 71.3806 81.9633C71.3094 82.1539 71.2062 82.2763 71.0779 82.3511C70.9469 82.4274 70.7671 82.4674 70.5217 82.4502C70.276 82.433 70.1068 82.3685 69.9929 82.2767C69.8818 82.1871 69.8021 82.0545 69.7651 81.8575C69.7418 81.7333 69.6222 81.6515 69.4979 81.6748C69.3737 81.6982 69.2919 81.8178 69.3152 81.942C69.3684 82.2255 69.4947 82.463 69.7055 82.633C69.9135 82.8007 70.182 82.8853 70.4898 82.9069C70.7979 82.9284 71.0763 82.8819 71.3084 82.7465C71.5433 82.6096 71.7079 82.3951 71.8094 82.1236C71.8537 82.0052 71.7935 81.8733 71.6751 81.8291Z" fill="#1D2541"/>
<path d="M71.9901 81.2328C71.8136 81.2204 71.6805 81.0673 71.6929 80.8908C71.7052 80.7143 71.8583 80.5811 72.0348 80.5935C72.2114 80.6058 72.3445 80.759 72.3321 80.9355C72.3198 81.112 72.1667 81.2451 71.9901 81.2328Z" fill="#1D2541"/>
<path d="M69.1786 81.0941C69.0021 81.0818 68.869 80.9286 68.8813 80.7521C68.8937 80.5756 69.0468 80.4425 69.2233 80.4548C69.3999 80.4672 69.533 80.6203 69.5206 80.7968C69.5083 80.9734 69.3552 81.1065 69.1786 81.0941Z" fill="#1D2541"/>
<path fill-rule="evenodd" clip-rule="evenodd" d="M98.3235 112.89C100.077 106.666 101.682 103.71 103.139 104.022C105.325 104.49 107.744 113.206 109.178 112.89C110.613 112.573 121.675 113.082 117.445 116.958C113.214 120.833 110.476 120.031 111.111 121.584C111.747 123.137 116.118 128.485 113.574 130.159C111.878 131.275 108.4 129.685 103.139 125.392C98.3889 130.032 95.3213 131.718 93.9362 130.448C92.5511 129.178 93.2074 125.774 95.9049 120.235C89.6598 116.227 87.6509 113.778 89.8784 112.89C92.1059 112.001 94.9209 112.001 98.3235 112.89Z" fill="#88FFC6"/>
<path fill-rule="evenodd" clip-rule="evenodd" d="M104.675 114.829C104.557 114.785 104.425 114.845 104.381 114.963C104.309 115.154 104.206 115.276 104.078 115.351C103.947 115.428 103.767 115.467 103.522 115.45C103.276 115.433 103.107 115.369 102.993 115.277C102.882 115.187 102.802 115.055 102.765 114.858C102.742 114.733 102.622 114.652 102.498 114.675C102.374 114.698 102.292 114.818 102.315 114.942C102.368 115.226 102.495 115.463 102.706 115.633C102.913 115.801 103.182 115.885 103.49 115.907C103.798 115.929 104.076 115.882 104.308 115.747C104.543 115.61 104.708 115.395 104.809 115.124C104.854 115.005 104.794 114.873 104.675 114.829Z" fill="#1D2541"/>
<path d="M104.99 114.233C104.814 114.221 104.681 114.067 104.693 113.891C104.705 113.714 104.858 113.581 105.035 113.594C105.211 113.606 105.344 113.759 105.332 113.936C105.32 114.112 105.167 114.245 104.99 114.233Z" fill="#1D2541"/>
<path d="M102.179 114.094C102.002 114.082 101.869 113.929 101.881 113.752C101.894 113.576 102.047 113.442 102.223 113.455C102.4 113.467 102.533 113.62 102.521 113.797C102.508 113.973 102.355 114.106 102.179 114.094Z" fill="#1D2541"/>
<path fill-rule="evenodd" clip-rule="evenodd" d="M118.521 70.8896C116.768 64.6662 115.163 61.7105 113.706 62.0223C111.52 62.4901 108.327 69.9769 107.716 69.9769C107.106 69.9769 95.8336 67.6513 99.871 72.3051C103.908 76.9589 106.793 76.682 106.157 78.2347C105.521 79.7874 100.347 85.1054 102.89 86.7791C104.586 87.8948 107.828 86.6545 112.616 83.0581C117.129 87.7281 120.078 89.4284 121.464 88.1588C122.849 86.8892 122.674 83.5811 120.94 78.2347C127.393 75.8322 129.505 74.1866 127.278 73.2978C125.05 72.4091 122.131 71.6064 118.521 70.8896Z" fill="#FFDC88"/>
<path fill-rule="evenodd" clip-rule="evenodd" d="M112.344 71.8314C112.468 71.8084 112.588 71.8905 112.611 72.0147C112.648 72.2148 112.728 72.3532 112.842 72.4492C112.957 72.5471 113.128 72.6177 113.372 72.6434C113.617 72.6691 113.795 72.635 113.923 72.5643C114.048 72.4954 114.15 72.3786 114.22 72.1911C114.265 72.0728 114.397 72.013 114.515 72.0575C114.633 72.1021 114.693 72.2341 114.649 72.3524C114.547 72.6224 114.381 72.8343 114.144 72.9651C113.91 73.0941 113.631 73.1309 113.324 73.0986C113.017 73.0663 112.751 72.9722 112.546 72.7986C112.339 72.623 112.214 72.3831 112.161 72.0981C112.138 71.9738 112.22 71.8544 112.344 71.8314Z" fill="#1D2541"/>
<path d="M112.138 71.1895C112.314 71.208 112.472 71.0803 112.491 70.9043C112.509 70.7283 112.381 70.5707 112.205 70.5522C112.029 70.5338 111.872 70.6615 111.853 70.8375C111.835 71.0135 111.962 71.1711 112.138 71.1895Z" fill="#1D2541"/>
<path d="M114.931 71.5412C115.107 71.5597 115.265 71.432 115.284 71.256C115.302 71.08 115.174 70.9224 114.998 70.9039C114.822 70.8854 114.665 71.013 114.646 71.189C114.628 71.365 114.755 71.5227 114.931 71.5412Z" fill="#1D2541"/>
</svg>
