<svg width="253" height="291" viewBox="0 0 253 291" fill="none" xmlns="http://www.w3.org/2000/svg">
<g clip-path="url(#clip0)">
<path d="M41 150.682C47.4 147.882 60 149.516 65.5 150.682C79.8333 154.349 109.7 161.682 114.5 161.682C119.3 161.682 126.5 159.016 129.5 157.682L132.5 152.682C136.5 153.682 145.9 155.682 151.5 155.682C158.5 155.682 189 150.682 192.5 150.682C196 150.682 209.5 152.182 218 163.182C226.5 174.182 240.5 217.182 243.5 228.182C246.5 239.182 240.5 256.682 239 260.682C237.8 263.882 227.167 275.682 222 281.182C154 288.682 22.8 281.882 18 282.682C13.2 283.482 7 281.182 7 278.682L10 214.182C12 203.182 16.9 179.682 20.5 173.682C25 166.182 33 154.182 41 150.682Z" fill="#FAF9F8"/>
<path d="M64.5287 110.036C61.3495 98.3925 62.7521 81.8798 62.2578 69.453C68.186 64.8711 82.8438 55.1836 94.0496 53.089C108.057 50.4707 171.222 49.1616 178.095 64.2165C184.968 79.2714 192.168 108.072 179.404 120.509C166.64 132.945 131.621 140.473 131.294 141.782C131.032 142.829 131.185 151.928 131.294 155.855C131.294 155.855 120.328 161.982 112.672 161.982C105.016 161.982 94.0496 155.855 94.0496 155.855C93.7802 151.826 93.9753 146.501 94.0496 141.782C94.1425 135.882 71.4296 135.309 64.5287 110.036Z" fill="#FAF9F8"/>
<path fill-rule="evenodd" clip-rule="evenodd" d="M138.614 54.0208C120.3 52.7993 101.192 53.7886 94.417 55.0549C89.1386 56.0415 82.9005 58.859 77.1529 62.0826C71.9403 65.0061 67.2685 68.185 64.2931 70.4173C64.3979 73.7886 64.3825 77.4864 64.3669 81.2485C64.3547 84.1705 64.3423 87.1313 64.3861 90.0078C64.4943 97.1212 64.939 103.946 66.458 109.509C69.7362 121.515 76.7205 127.61 82.9641 131.473C84.5393 132.448 86.0706 133.282 87.5047 134.041C87.848 134.222 88.1895 134.402 88.5263 134.578C89.5713 135.127 90.5716 135.652 91.4431 136.153C92.5851 136.809 93.6864 137.523 94.5095 138.351C95.3603 139.207 96.0723 140.351 96.0493 141.813C96.0341 142.777 96.0143 143.757 95.9944 144.738C95.9244 148.2 95.8537 151.69 95.9843 154.62C96.2132 154.738 96.4791 154.874 96.7778 155.024C97.8941 155.583 99.4599 156.327 101.255 157.071C104.918 158.588 109.263 159.982 112.672 159.982C116.08 159.982 120.425 158.588 124.088 157.071C125.883 156.327 127.449 155.583 128.565 155.024C128.823 154.895 129.057 154.776 129.263 154.67C129.217 152.717 129.17 150.116 129.155 147.752C129.145 146.297 129.147 144.918 129.168 143.831C129.179 143.289 129.195 142.804 129.217 142.41C129.236 142.082 129.268 141.639 129.353 141.297C129.473 140.818 129.732 140.502 129.869 140.354C130.023 140.189 130.177 140.073 130.283 139.999C130.494 139.852 130.72 139.737 130.899 139.653C131.271 139.478 131.748 139.298 132.27 139.115C133.327 138.744 134.812 138.282 136.567 137.743C136.9 137.64 137.244 137.535 137.598 137.426C141.007 136.381 145.36 135.046 150.03 133.428C155.187 131.642 160.689 129.523 165.672 127.097C170.68 124.659 175.041 121.967 178.008 119.076C183.706 113.524 185.172 104.032 184.123 93.5434C183.085 83.1667 179.64 72.4166 176.275 65.047C175.656 63.6905 174.308 62.3307 172.081 61.0383C169.871 59.7562 166.964 58.6382 163.503 57.6868C156.583 55.7848 147.757 54.6306 138.614 54.0208ZM131.294 155.855C132.269 157.601 132.269 157.601 132.269 157.601L132.268 157.602L132.257 157.608L132.229 157.623C132.205 157.636 132.171 157.655 132.127 157.679C132.039 157.727 131.911 157.796 131.747 157.884C131.419 158.058 130.946 158.305 130.356 158.601C129.177 159.191 127.522 159.978 125.619 160.766C121.885 162.313 116.919 163.982 112.672 163.982C108.424 163.982 103.458 162.313 99.7243 160.766C97.8208 159.978 96.1665 159.191 94.9874 158.601C94.3971 158.305 93.924 158.058 93.596 157.884C93.432 157.796 93.3042 157.727 93.216 157.679C93.172 157.655 93.1378 157.636 93.114 157.623L93.0861 157.608L93.0746 157.601C93.0743 157.601 93.074 157.601 94.0495 155.855L93.0746 157.601C92.4836 157.271 92.0992 156.664 92.054 155.988C91.8316 152.662 91.9168 148.481 91.9967 144.559C92.0163 143.602 92.0355 142.66 92.0498 141.75L92.0499 141.749C92.051 141.727 92.0597 141.56 91.6721 141.17C91.2439 140.739 90.532 140.243 89.4499 139.621C88.6508 139.162 87.7482 138.688 86.7243 138.15C86.3752 137.967 86.012 137.776 85.634 137.576C84.1728 136.803 82.5488 135.92 80.8594 134.875C74.0446 130.658 66.2219 123.83 62.5992 110.562C60.939 104.482 60.4954 97.229 60.3865 90.0686C60.3399 87.0005 60.3536 83.985 60.3669 81.0585C60.3852 77.0145 60.4028 73.1404 60.2593 69.5325C60.2336 68.8857 60.5225 68.2664 61.0347 67.8705C64.071 65.5238 69.2989 61.9014 75.1962 58.5938C81.0609 55.3046 87.7547 52.2309 93.6821 51.123C100.915 49.7711 120.393 48.7966 138.881 50.0297C148.139 50.6472 157.269 51.8249 164.563 53.8298C168.209 54.8318 171.473 56.0611 174.089 57.5787C176.686 59.0861 178.815 60.9786 179.914 63.3859C183.423 71.0712 187.014 82.2488 188.103 93.1454C189.182 103.93 187.865 115.057 180.8 121.941C177.385 125.268 172.582 128.181 167.423 130.693C162.241 133.217 156.574 135.394 151.34 137.208C146.598 138.851 142.178 140.206 138.773 141.25C138.418 141.359 138.074 141.464 137.741 141.566C135.968 142.111 134.563 142.549 133.593 142.889C133.444 142.942 133.311 142.99 133.192 143.034C133.182 143.286 133.174 143.579 133.168 143.909C133.147 144.945 133.145 146.284 133.155 147.725C133.174 150.605 133.239 153.848 133.293 155.799C133.314 156.544 132.919 157.238 132.269 157.601L131.294 155.855Z" fill="#FF8888"/>
<ellipse cx="85.5" cy="86.4824" rx="2.5" ry="5" fill="#FF8888"/>
<ellipse cx="125.5" cy="86.4824" rx="2.5" ry="5" fill="#FF8888"/>
<path fill-rule="evenodd" clip-rule="evenodd" d="M104.697 92.424C105.282 93.3612 104.996 94.5949 104.058 95.1794C102.889 95.9089 101.247 97.0686 100.084 98.1697C99.7344 98.5012 99.4721 98.7863 99.2874 99.0172C99.6624 99.2588 100.172 99.5155 100.796 99.761C101.779 100.147 102.784 100.405 103.375 100.518C104.46 100.725 105.172 101.773 104.964 102.858C104.757 103.943 103.709 104.654 102.625 104.447C101.821 104.293 100.574 103.971 99.3334 103.484C98.1578 103.022 96.6877 102.298 95.7224 101.209C94.5558 99.8919 95.0516 98.347 95.4713 97.5545C95.9156 96.7155 96.6374 95.925 97.3343 95.2652C98.7659 93.9097 100.653 92.5893 101.942 91.7855C102.879 91.2009 104.112 91.4868 104.697 92.424Z" fill="#FF8888"/>
<path fill-rule="evenodd" clip-rule="evenodd" d="M64.9882 148.734C67.6942 149.569 72.1941 150.768 73.5454 152.413L70.4545 154.952C69.8892 154.264 66.3682 153.346 63.8086 152.556C61.3544 151.798 58.2642 151.255 54.9562 151.079C48.2482 150.723 41.1554 151.896 36.7101 155.274C33.895 157.414 30.9598 161.18 28.0916 166.062C25.2452 170.908 22.5539 176.699 20.1727 182.729C15.4002 194.816 11.9574 207.647 10.9845 215.43C9.40822 228.041 9.49902 264.59 10.9934 283.021L7.00649 283.344C5.50088 264.775 5.39171 227.924 7.01541 214.934C8.0425 206.717 11.5998 193.549 16.4522 181.26C18.8835 175.103 21.661 169.112 24.6427 164.036C27.6026 158.997 30.8549 154.7 34.2898 152.09C39.8446 147.868 48.085 146.708 55.1687 147.085C58.7565 147.276 62.1767 147.866 64.9882 148.734Z" fill="#FF8888"/>
<path fill-rule="evenodd" clip-rule="evenodd" d="M75.6308 158.205C68.6881 150.233 56.5225 135.452 54.8865 125.67C52.815 113.284 59.8493 89.0386 64.8407 93.791C66.4707 95.3428 65.7669 100.891 65.0699 106.387C64.4564 111.224 63.8481 116.02 64.8408 118.013C65.6997 119.739 66.7341 115.877 68.0429 110.992C69.9651 103.816 72.479 94.4318 75.8981 97.291C79.5143 100.315 77.5747 107.417 75.9171 113.486C74.6612 118.085 73.5671 122.09 75.1739 123.281C77.2273 124.802 79.2878 119.274 81.3135 113.839C82.9651 109.408 84.5935 105.039 86.1761 104.604C91.9797 103.005 90.2693 110.624 88.5843 118.129C87.255 124.05 85.9415 129.9 88.3454 131.099C97.6161 135.724 100.89 147.941 99.2416 156.288L97.5003 190.243L67.0003 183.243L75.5003 158.243L75.6308 158.205Z" fill="#FAF9F8"/>
<path fill-rule="evenodd" clip-rule="evenodd" d="M64.3639 91.2883C65.0936 91.4688 65.7115 91.8586 66.2198 92.3425C67.0834 93.1648 67.4493 94.3059 67.6288 95.2775C67.8176 96.2987 67.8585 97.467 67.8272 98.6624C67.7653 101.031 67.4048 103.872 67.063 106.568L67.054 106.639C67.0251 106.866 66.9963 107.093 66.9678 107.319C67.7296 104.589 68.5993 101.753 69.5847 99.559C70.25 98.0777 71.1066 96.5575 72.2586 95.6472C72.879 95.1571 73.6951 94.7572 74.6728 94.7646C75.6549 94.772 76.5009 95.188 77.181 95.7568C79.7785 97.929 80.1305 101.354 79.8785 104.411C79.6231 107.508 78.6838 110.947 77.874 113.912L77.8463 114.013C77.2055 116.36 76.6624 118.363 76.4544 119.925C76.4327 120.089 76.4156 120.241 76.4026 120.382C76.4344 120.326 76.4669 120.268 76.4999 120.208C77.4394 118.493 78.4067 115.912 79.4394 113.141L79.4623 113.079C80.271 110.91 81.1159 108.643 81.9655 106.862C82.3937 105.965 82.8619 105.106 83.3751 104.415C83.838 103.792 84.5765 102.97 85.645 102.675C87.4154 102.188 89.2658 102.236 90.6257 103.547C91.8419 104.719 92.1396 106.442 92.1873 107.886C92.283 110.787 91.3902 114.762 90.5848 118.348C90.5684 118.421 90.552 118.494 90.5357 118.567C89.8605 121.575 89.2382 124.365 89.0581 126.549C88.9678 127.645 89.0052 128.427 89.1265 128.933C89.1843 129.174 89.2426 129.284 89.2719 129.327C94.4508 131.923 97.863 136.586 99.7583 141.589C101.634 146.54 102.095 151.997 101.232 156.531L99.4976 190.346C99.4674 190.936 99.1775 191.483 98.7058 191.839C98.2342 192.196 97.629 192.325 97.0529 192.193L66.5529 185.193C66.0013 185.066 65.5292 184.712 65.2535 184.218C64.9779 183.723 64.9246 183.135 65.1067 182.6L73.2832 158.551C69.886 154.616 65.477 149.294 61.6267 143.758C57.5057 137.833 53.8122 131.372 52.9138 126C51.8076 119.386 53.1306 109.894 55.3007 102.724C56.3837 99.1463 57.7457 95.9125 59.2799 93.8367C60.0277 92.8248 61.0017 91.8306 62.2361 91.3999C62.8951 91.1701 63.6222 91.1048 64.3639 91.2883ZM77.2072 159.436L69.607 181.79L95.6249 187.761L97.2442 156.185C97.2491 156.09 97.2609 155.994 97.2795 155.9C98.0267 152.116 97.6646 147.354 96.0177 143.006C94.3746 138.669 91.5254 134.921 87.4526 132.889C86.1258 132.227 85.5076 130.995 85.2368 129.866C84.9698 128.753 84.9679 127.478 85.0716 126.22C85.2771 123.729 85.9624 120.677 86.6097 117.794L86.6328 117.691C87.5001 113.828 88.2662 110.344 88.1895 108.018C88.1499 106.819 87.8924 106.468 87.8497 106.427C87.8487 106.426 87.8485 106.426 87.8482 106.426C87.8479 106.425 87.8476 106.425 87.8462 106.425C87.842 106.423 87.812 106.409 87.7406 106.399C87.5991 106.379 87.3175 106.379 86.8453 106.496C86.7995 106.539 86.7124 106.63 86.5867 106.8C86.2978 107.189 85.9589 107.781 85.5757 108.585C84.8106 110.188 84.0234 112.295 83.1875 114.538L83.1457 114.65C82.1643 117.283 81.1031 120.131 80.0081 122.13C79.4711 123.11 78.7913 124.147 77.9226 124.806C77.4604 125.156 76.8354 125.483 76.0697 125.531C75.2681 125.581 74.5549 125.311 73.9831 124.888C73.0208 124.175 72.6174 123.141 72.4634 122.228C72.3114 121.327 72.3634 120.344 72.4894 119.398C72.7369 117.538 73.3533 115.282 73.9594 113.063L73.9877 112.959C74.8294 109.877 75.6701 106.774 75.892 104.082C76.1172 101.351 75.6462 99.7195 74.6541 98.8585C74.3126 99.176 73.8145 99.9045 73.2335 101.198C72.0178 103.904 70.9506 107.866 69.9747 111.509L69.9423 111.63C69.3136 113.977 68.7065 116.244 68.1368 117.707C67.9876 118.09 67.8225 118.468 67.638 118.803C67.4737 119.101 67.2042 119.535 66.789 119.877C66.3089 120.271 65.3953 120.693 64.3624 120.237C63.5861 119.893 63.2098 119.225 63.0503 118.905C62.6414 118.083 62.462 117.125 62.3796 116.216C62.2949 115.281 62.3008 114.24 62.3556 113.165C62.4641 111.036 62.7773 108.567 63.0793 106.186L63.0857 106.135C63.4382 103.356 63.7724 100.705 63.8286 98.5578C63.8566 97.4852 63.8114 96.6319 63.6955 96.0045C63.5853 95.4086 63.4502 95.2331 63.4526 95.2312M63.4531 95.2315C63.4523 95.2307 63.4514 95.2299 63.4506 95.2291C63.2814 95.3325 62.9511 95.5993 62.4966 96.2141C61.3728 97.7348 60.1698 100.445 59.1292 103.883C57.0522 110.745 55.8937 119.568 56.859 125.34C57.5967 129.751 60.8041 135.57 64.9105 141.474C68.962 147.299 73.6831 152.923 77.139 156.892C77.587 157.406 77.7419 158.114 77.5499 158.768C77.4778 159.014 77.3604 159.24 77.2072 159.436M63.3562 95.1551C63.3562 95.1551 63.3571 95.1554 63.3587 95.1564C63.3571 95.1556 63.3562 95.1551 63.3562 95.1551ZM74.4943 98.7393C74.4942 98.7393 74.4953 98.7397 74.4973 98.7407C74.4953 98.7399 74.4943 98.7394 74.4943 98.7393ZM89.2913 129.349C89.2909 129.349 89.2859 129.345 89.2773 129.334C89.2874 129.342 89.2917 129.348 89.2913 129.349ZM75.4943 121.627C75.4943 121.627 75.495 121.626 75.4962 121.625C75.4949 121.626 75.4943 121.627 75.4943 121.627ZM76.4619 121.773C76.4647 121.778 76.466 121.781 76.4659 121.781C76.4658 121.781 76.4643 121.779 76.4619 121.773ZM64.0861 116.953C64.0861 116.953 64.0883 116.95 64.0929 116.943C64.0884 116.95 64.0861 116.953 64.0861 116.953ZM66.625 117.11C66.6455 117.144 66.6463 117.153 66.6311 117.122C66.6291 117.118 66.6271 117.114 66.625 117.11Z" fill="#FF8888"/>
<path d="M36.5881 218.562C24.3357 251.256 4.49988 230.682 8.49979 282.182L53 283.182C56.5 276.682 74.5 300.743 98 248.743C102.849 238.013 120.447 169.255 120.447 169.255C120.447 169.255 59.1848 154.784 54.1633 154.248C49.1418 153.712 42.6139 202.484 36.5881 218.562Z" fill="#FAF9F8"/>
<path fill-rule="evenodd" clip-rule="evenodd" d="M171.472 155.456C170.144 155.857 169.357 156.196 169.048 156.386L166.952 152.979C167.727 152.502 168.936 152.044 170.316 151.627C171.748 151.195 173.526 150.76 175.546 150.374C179.584 149.603 184.664 149.014 189.973 149.057C200.421 149.141 212.53 151.691 218.674 161.088C223.036 167.759 231.428 184.524 237.753 202.621C240.92 211.684 243.594 221.148 244.98 229.903C246.358 238.613 246.499 246.836 244.403 253.299C241.255 263.005 234.609 271.288 227.148 277.983C219.676 284.689 202.159 282.449 194 284.5V282.182C202.5 279.682 217.324 281.425 224.477 275.006C231.641 268.577 237.746 260.859 240.598 252.065C242.405 246.493 242.372 239.012 241.029 230.528C239.693 222.089 237.098 212.87 233.977 203.941C227.726 186.056 219.464 169.605 215.326 163.277C210.355 155.673 200.13 153.139 189.941 153.057C184.931 153.017 180.115 153.574 176.296 154.303C174.388 154.667 172.748 155.071 171.472 155.456Z" fill="#FF8888"/>
<path d="M59.292 36.0703C64.1825 28.1703 74.2494 20.7137 80.0441 17.5132C92.9613 10.3788 152.594 1.29204 175.476 20.3609C212.786 51.4525 215.732 114.945 189.877 144.4C178.922 156.88 136.973 160.523 125.884 147.455C118.332 138.556 120.475 128.807 120.713 126.329C123.485 127.221 129.985 129.846 139.749 128.16C160.478 124.579 157.291 92.6662 157.149 77.1498C155.79 77.0191 137.92 77.2805 136.561 77.1498C135.202 77.0191 133.305 68.2103 132.018 67.3363C130.73 66.4624 129.765 76.4963 128.746 76.3983C127.726 76.3003 89.6523 76.39 87.9534 76.2266C86.2544 76.0632 86.4682 66.7072 85.4488 66.6092C84.6333 66.5307 82.9278 72.6178 82.1769 75.6712C74.4692 76.1802 52.3997 75.8816 50.7827 72.7256C48.7615 68.7806 50.7827 49.8161 59.292 36.0703Z" fill="#1D2541"/>
<path fill-rule="evenodd" clip-rule="evenodd" d="M97.5803 14.2279C89.8512 15.778 83.9569 17.6371 81.0111 19.264C75.357 22.3869 65.626 29.6384 60.9926 37.1231C56.9017 43.7315 54.3383 51.66 53.0536 58.4454C52.4126 61.831 52.099 64.8849 52.0628 67.297C52.0447 68.5041 52.0966 69.5205 52.202 70.3207C52.2905 70.9932 52.4061 71.4253 52.4996 71.6693C52.5965 71.7305 52.7629 71.8184 53.0224 71.9222C53.626 72.1635 54.51 72.4034 55.6634 72.6248C57.9557 73.0648 61.0079 73.3757 64.317 73.5765C70.1628 73.9313 76.5935 73.9302 80.6022 73.7536C80.9645 72.3787 81.4223 70.7607 81.8886 69.3416C82.2069 68.3728 82.5504 67.4305 82.8901 66.7099C83.054 66.3624 83.2616 65.9688 83.5165 65.6357C83.6421 65.4715 83.8417 65.2383 84.1241 65.0367C84.4019 64.8384 84.9338 64.5505 85.6403 64.6184C86.5119 64.7023 87.0216 65.2555 87.2328 65.5402C87.4566 65.8421 87.5864 66.1574 87.6625 66.37C87.8201 66.8104 87.925 67.3295 88.0038 67.7995C88.1247 68.5206 88.2298 69.4252 88.3326 70.3097C88.3658 70.5955 88.3987 70.8791 88.4319 71.1537C88.5762 72.3493 88.7278 73.4109 88.9242 74.1648C88.9327 74.1977 88.9412 74.2292 88.9496 74.2596C89.28 74.2659 89.6908 74.2717 90.1744 74.2771C91.3731 74.2904 92.9982 74.3006 94.9091 74.3087C98.7298 74.3248 103.677 74.3319 108.607 74.3371C109.862 74.3384 111.116 74.3396 112.35 74.3407C115.96 74.3441 119.397 74.3473 122.185 74.3532C124.055 74.3572 125.636 74.3624 126.783 74.3697C127.065 74.3715 127.332 74.3733 127.576 74.3755C127.577 74.3721 127.578 74.3686 127.579 74.3652C127.772 73.6704 127.968 72.7793 128.184 71.7978C128.231 71.5836 128.279 71.365 128.329 71.1433C128.588 69.9731 128.886 68.683 129.22 67.7331C129.373 67.2978 129.61 66.7039 129.984 66.2336C130.171 65.9986 130.548 65.5933 131.16 65.3939C131.897 65.1535 132.614 65.3237 133.141 65.6816C133.732 66.0827 134.094 66.7006 134.281 67.0434C134.516 67.4714 134.735 67.973 134.937 68.4777C135.282 69.3417 135.641 70.3842 135.984 71.3783C136.041 71.5433 136.097 71.7069 136.153 71.8683C136.56 73.0467 136.936 74.0991 137.28 74.8583C137.336 74.9817 137.387 75.0878 137.433 75.178C137.544 75.1796 137.666 75.181 137.798 75.1821C138.408 75.1877 139.214 75.1887 140.156 75.1867C142.038 75.1826 144.436 75.1663 146.841 75.1499L146.846 75.1499C149.247 75.1336 151.653 75.1172 153.545 75.1132C155.359 75.1092 156.874 75.1142 157.34 75.1591C158.359 75.257 159.139 76.1082 159.149 77.1316C159.163 78.6447 159.208 80.3414 159.256 82.1724C159.45 89.5033 159.701 98.9874 158.247 107.469C156.435 118.041 151.778 128.112 140.09 130.131C131.974 131.532 125.951 130.098 122.412 128.993C122.018 132.914 121.966 139.746 127.409 146.161C129.776 148.951 133.985 151.037 139.468 152.297C144.901 153.545 151.327 153.922 157.804 153.512C164.278 153.103 170.721 151.913 176.18 150.084C181.689 148.237 185.975 145.813 188.374 143.081C200.836 128.883 206.506 106.25 204.372 83.1783C202.241 60.1404 192.358 37.0324 174.196 21.8974C168.841 17.435 161.197 14.5191 152.353 12.8327C143.536 11.1513 133.694 10.7235 124.104 11.1093C114.52 11.495 105.244 12.6909 97.5803 14.2279ZM137.663 75.5724C137.662 75.5722 137.661 75.5706 137.659 75.5675C137.662 75.5709 137.663 75.5726 137.663 75.5724ZM127.315 75.1518C127.315 75.1523 127.317 75.1475 127.322 75.1385C127.318 75.1471 127.315 75.1514 127.315 75.1518ZM128.84 74.4007C128.872 74.4022 128.904 74.4045 128.937 74.4076C128.911 74.4051 128.879 74.4028 128.84 74.4007ZM52.4186 71.6116C52.4187 71.6116 52.421 71.6134 52.4251 71.6173C52.4205 71.6136 52.4185 71.6117 52.4186 71.6116ZM153.103 8.90349C162.28 10.6535 170.67 13.7525 176.757 18.8245C195.905 34.7812 206.15 58.965 208.355 82.8099C210.558 106.621 204.772 130.462 191.38 145.719C188.301 149.227 183.235 151.938 177.451 153.877C171.617 155.832 164.826 157.076 158.057 157.504C151.292 157.932 144.466 157.549 138.572 156.195C132.729 154.853 127.536 152.493 124.359 148.749C116.882 139.937 118.177 130.271 118.626 126.919C118.668 126.599 118.704 126.337 118.723 126.138C118.781 125.535 119.109 124.991 119.614 124.659C120.12 124.326 120.75 124.24 121.326 124.425C121.558 124.5 121.812 124.585 122.089 124.678C125.144 125.703 130.949 127.65 139.409 126.189C148.45 124.627 152.564 116.951 154.305 106.793C155.684 98.7461 155.451 89.8048 155.26 82.4855C155.229 81.3167 155.2 80.1892 155.178 79.1134C154.703 79.1118 154.156 79.1118 153.554 79.1131C151.672 79.1172 149.274 79.1335 146.869 79.1499L146.863 79.1499C144.463 79.1662 142.056 79.1826 140.164 79.1867C138.351 79.1906 136.836 79.1856 136.37 79.1407C135.76 79.0821 135.311 78.8005 135.042 78.5825C134.767 78.3602 134.559 78.1076 134.408 77.8985C134.106 77.4818 133.851 76.9812 133.637 76.5103C133.204 75.5538 132.77 74.3249 132.372 73.1755C132.313 73.0039 132.254 72.8338 132.196 72.6656C132.175 72.602 132.153 72.5386 132.131 72.4755C132.121 72.5214 132.111 72.5674 132.101 72.6136C131.885 73.5961 131.659 74.6253 131.433 75.4367C131.3 75.9157 131.136 76.4374 130.929 76.8673C130.831 77.0718 130.664 77.3836 130.398 77.668C130.151 77.9333 129.518 78.4819 128.554 78.3893C128.573 78.391 128.561 78.3908 128.503 78.3894C128.438 78.3878 128.314 78.3848 128.11 78.3819C127.783 78.3773 127.327 78.3732 126.757 78.3696C125.62 78.3624 124.046 78.3572 122.177 78.3532C119.39 78.3473 115.953 78.3441 112.342 78.3407C111.109 78.3396 109.857 78.3384 108.602 78.3371C103.673 78.3319 98.7201 78.3248 94.8922 78.3086C92.9788 78.3006 91.3427 78.2903 90.13 78.2768C88.9812 78.2641 88.083 78.2484 87.762 78.2175C86.5697 78.1029 85.9329 77.2243 85.6731 76.7796C85.377 76.273 85.187 75.6865 85.0533 75.1729C84.9373 74.7276 84.8387 74.2347 84.7526 73.725C84.5074 74.6143 84.2888 75.4591 84.1191 76.1489C83.911 76.9953 83.1786 77.6095 82.3088 77.6669C78.3592 77.9278 70.8296 77.9791 64.0747 77.5692C60.7008 77.3645 57.4507 77.0408 54.9094 76.5531C53.6459 76.3106 52.4803 76.0134 51.5373 75.6363C51.0647 75.4473 50.5929 75.2167 50.1755 74.9266C49.7691 74.6441 49.3066 74.2307 49.0028 73.6376C48.5968 72.8453 48.3694 71.854 48.2362 70.8429C48.0985 69.7972 48.0432 68.5773 48.0633 67.237C48.1035 64.5542 48.4481 61.2681 49.1234 57.7013C50.4713 50.5817 53.1732 42.1551 57.5916 35.0177C62.7391 26.7024 73.142 19.0407 79.0772 15.7626C82.5901 13.8224 88.9938 11.8703 96.7938 10.306C104.659 8.72851 114.144 7.50683 123.943 7.11256C133.736 6.71854 143.9 7.14851 153.103 8.90349ZM130.665 68.7883C130.665 68.7882 130.667 68.7903 130.67 68.7949C130.667 68.7907 130.665 68.7884 130.665 68.7883Z" fill="#FF8888"/>
<path fill-rule="evenodd" clip-rule="evenodd" d="M69.4458 158.294C70.5226 158.54 71.196 159.612 70.9499 160.689L66.9499 178.189C66.7038 179.266 65.6313 179.939 64.5545 179.693C63.4777 179.447 62.8044 178.375 63.0505 177.298L67.0505 159.798C67.2966 158.721 68.369 158.048 69.4458 158.294Z" fill="#FF8888"/>
<path fill-rule="evenodd" clip-rule="evenodd" d="M84.9458 160.294C86.0226 160.54 86.696 161.612 86.4499 162.689L82.4499 180.189C82.2038 181.266 81.1313 181.939 80.0545 181.693C78.9777 181.447 78.3044 180.375 78.5505 179.298L82.5505 161.798C82.7966 160.721 83.869 160.048 84.9458 160.294Z" fill="#FF8888"/>
<path fill-rule="evenodd" clip-rule="evenodd" d="M98.9458 164.294C100.023 164.54 100.696 165.612 100.45 166.689L96.4499 184.189C96.2038 185.266 95.1313 185.939 94.0545 185.693C92.9777 185.447 92.3044 184.375 92.5505 183.298L96.5505 165.798C96.7966 164.721 97.869 164.048 98.9458 164.294Z" fill="#FF8888"/>
<path d="M172.859 81.5364C168.659 74.165 158.955 78.5821 154.628 81.7121L152.24 112.858C156.763 111.736 161.402 109.422 166.484 105.28C172.837 100.102 178.108 90.7507 172.859 81.5364Z" fill="#FAF9F8"/>
<path d="M154.628 81.7121C158.955 78.5821 168.659 74.165 172.859 81.5364C178.108 90.7507 172.837 100.102 166.484 105.28C161.402 109.422 156.763 111.736 152.24 112.858" stroke="#FF8888" stroke-width="4"/>
<path fill-rule="evenodd" clip-rule="evenodd" d="M44.7881 187.571C42.2422 199.725 39.5915 212.379 37.011 219.264C30.7226 236.044 22.3983 244.016 14.9531 250.543C14.4706 250.966 13.9936 251.381 13.5227 251.792C7.13592 257.357 12.3106 271.635 9.39254 280.448L66.5457 280.822C69 279.682 69.2794 279.648 71.4216 278.38C72.1042 277.976 72.83 277.576 73.6053 277.148C75.6308 276.032 77.9944 274.729 80.8094 272.682C88.4443 267.13 83.0838 273.685 94.7276 247.92C95.87 245.392 97.8392 239.234 100.184 231.234C102.51 223.299 105.16 213.714 107.661 204.454C110.162 195.196 112.512 186.271 114.236 179.661C115.099 176.356 115.804 173.63 116.295 171.73C116.389 171.367 116.474 171.034 116.552 170.733C116.348 170.685 116.129 170.633 115.896 170.579C114.212 170.182 111.8 169.615 108.89 168.932C103.069 167.568 95.2567 165.743 87.2879 163.901C79.318 162.059 71.1961 160.201 64.7552 158.771C58.9729 157.487 54.6907 156.582 53.0161 156.31C52.8949 156.478 52.7354 156.735 52.5449 157.108C51.96 158.253 51.311 160.034 50.6132 162.38C49.2267 167.042 47.7664 173.517 46.2585 180.592C45.7732 182.869 45.2826 185.21 44.7881 187.571ZM118.997 169.255C120.934 169.75 120.934 169.751 120.934 169.751L120.934 169.754L120.735 170.527C120.605 171.034 120.413 171.779 120.168 172.73C119.677 174.632 118.97 177.362 118.107 180.671C116.38 187.288 114.028 196.224 111.523 205.497C109.019 214.768 106.36 224.384 104.022 232.359C101.704 240.27 99.6548 246.73 98.3727 249.567C86.5166 275.802 91.4867 269.863 83.1619 275.917C80.1248 278.126 77.4105 279.622 75.3493 280.758C74.6365 281.151 74.5429 281.361 74 281.682C72.889 282.34 72.5 282.682 71.2884 283.439C71.2884 283.439 69.5 284.682 68.2518 284.843L6.04576 284.182C5.22289 283.735 4.82022 282.777 5.07672 281.877C8.20879 270.88 4.1 254.684 10.8032 248.854C11.306 248.417 11.8107 247.978 12.3164 247.535C19.512 241.227 27.3015 233.774 33.2655 217.861C35.7271 211.292 38.2943 199.047 40.8477 186.868C41.3481 184.481 41.8479 182.096 42.3464 179.758C43.8514 172.697 45.3413 166.074 46.7792 161.24C47.4938 158.837 48.2257 156.77 48.9825 155.288C49.3558 154.557 49.795 153.847 50.3264 153.305C50.8393 152.782 51.7291 152.131 52.9257 152.259C54.3252 152.409 59.2503 153.452 65.6222 154.866C72.0801 156.3 80.2153 158.161 88.1886 160.004C96.163 161.847 103.98 163.673 109.803 165.038C112.714 165.721 115.128 166.288 116.813 166.685C117.656 166.883 118.317 167.039 118.767 167.145L119.456 167.308C119.456 167.308 119.457 167.308 118.997 169.255ZM118.997 169.255L119.456 167.308C119.978 167.431 120.43 167.76 120.708 168.219C120.986 168.679 121.067 169.231 120.934 169.751L118.997 169.255Z" fill="#FF8888"/>
<path fill-rule="evenodd" clip-rule="evenodd" d="M167.366 158.205C174.309 150.233 186.474 135.452 188.11 125.67C190.182 113.284 183.148 89.0386 178.156 93.791C176.526 95.3428 177.23 100.891 177.927 106.387C178.54 111.224 179.149 116.02 178.156 118.013C177.297 119.739 176.263 115.877 174.954 110.992C173.032 103.816 170.518 94.4318 167.099 97.291C163.483 100.315 165.422 107.417 167.08 113.486C168.336 118.085 169.43 122.09 167.823 123.281C165.77 124.802 163.709 119.274 161.683 113.839C160.032 109.408 158.403 105.039 156.821 104.604C151.017 103.005 152.728 110.624 154.413 118.129C155.742 124.05 157.055 129.9 154.651 131.099C145.381 135.724 142.107 147.941 143.755 156.288L145.496 190.243L175.996 183.243L167.496 158.243L167.366 158.205Z" fill="#FAF9F8"/>
<path fill-rule="evenodd" clip-rule="evenodd" d="M178.633 91.2883C177.903 91.4688 177.285 91.8586 176.777 92.3425C175.913 93.1648 175.548 94.3059 175.368 95.2775C175.179 96.2987 175.138 97.467 175.17 98.6624C175.232 101.031 175.592 103.872 175.934 106.568L175.943 106.639C175.972 106.866 176.001 107.093 176.029 107.319C175.267 104.589 174.398 101.753 173.412 99.559C172.747 98.0777 171.89 96.5575 170.738 95.6472C170.118 95.1571 169.302 94.7572 168.324 94.7646C167.342 94.772 166.496 95.188 165.816 95.7568C163.218 97.929 162.866 101.354 163.118 104.411C163.374 107.508 164.313 110.947 165.123 113.912L165.15 114.013C165.791 116.36 166.334 118.363 166.542 119.925C166.564 120.089 166.581 120.241 166.594 120.382C166.562 120.326 166.53 120.268 166.497 120.208C165.557 118.493 164.59 115.912 163.557 113.141L163.535 113.079C162.726 110.91 161.881 108.643 161.031 106.862C160.603 105.965 160.135 105.106 159.622 104.415C159.159 103.792 158.42 102.97 157.352 102.675C155.581 102.188 153.731 102.236 152.371 103.547C151.155 104.719 150.857 106.442 150.81 107.886C150.714 110.787 151.607 114.762 152.412 118.348C152.428 118.421 152.445 118.494 152.461 118.567C153.136 121.575 153.759 124.365 153.939 126.549C154.029 127.645 153.992 128.427 153.87 128.933C153.812 129.174 153.754 129.284 153.725 129.327C148.546 131.923 145.134 136.586 143.239 141.589C141.363 146.54 140.902 151.997 141.765 156.531L143.499 190.346C143.529 190.936 143.819 191.483 144.291 191.839C144.763 192.196 145.368 192.325 145.944 192.193L176.444 185.193C176.996 185.066 177.468 184.712 177.743 184.218C178.019 183.723 178.072 183.135 177.89 182.6L169.714 158.551C173.111 154.616 177.52 149.294 181.37 143.758C185.491 137.833 189.185 131.372 190.083 126C191.189 119.386 189.866 109.894 187.696 102.724C186.613 99.1463 185.251 95.9125 183.717 93.8367C182.969 92.8248 181.995 91.8306 180.761 91.3999C180.102 91.1701 179.375 91.1048 178.633 91.2883ZM165.79 159.436L173.39 181.79L147.372 187.761L145.753 156.185C145.748 156.09 145.736 155.994 145.717 155.9C144.97 152.116 145.332 147.354 146.979 143.006C148.622 138.669 151.471 134.921 155.544 132.889C156.871 132.227 157.489 130.995 157.76 129.866C158.027 128.753 158.029 127.478 157.925 126.22C157.72 123.729 157.034 120.677 156.387 117.794L156.364 117.691C155.497 113.828 154.731 110.344 154.807 108.018C154.847 106.819 155.104 106.468 155.147 106.427C155.148 106.426 155.148 106.426 155.149 106.426C155.149 106.425 155.149 106.425 155.151 106.425C155.155 106.423 155.185 106.409 155.256 106.399C155.398 106.379 155.679 106.379 156.152 106.496C156.197 106.539 156.284 106.63 156.41 106.8C156.699 107.189 157.038 107.781 157.421 108.585C158.186 110.188 158.973 112.295 159.809 114.538L159.851 114.65C160.833 117.283 161.894 120.131 162.989 122.13C163.526 123.11 164.205 124.147 165.074 124.806C165.536 125.156 166.161 125.483 166.927 125.531C167.729 125.581 168.442 125.311 169.014 124.888C169.976 124.175 170.379 123.141 170.533 122.228C170.685 121.327 170.633 120.344 170.507 119.398C170.26 117.538 169.643 115.282 169.037 113.063L169.009 112.959C168.167 109.877 167.327 106.774 167.105 104.082C166.88 101.351 167.351 99.7195 168.343 98.8585C168.684 99.176 169.182 99.9045 169.763 101.198C170.979 103.904 172.046 107.866 173.022 111.509L173.055 111.63C173.683 113.977 174.29 116.244 174.86 117.707C175.009 118.09 175.174 118.468 175.359 118.803C175.523 119.101 175.793 119.535 176.208 119.877C176.688 120.271 177.602 120.693 178.634 120.237C179.411 119.893 179.787 119.225 179.947 118.905C180.355 118.083 180.535 117.125 180.617 116.216C180.702 115.281 180.696 114.24 180.641 113.165C180.533 111.036 180.22 108.567 179.918 106.186L179.911 106.135C179.559 103.356 179.224 100.705 179.168 98.5578C179.14 97.4852 179.185 96.6319 179.301 96.0045C179.412 95.4086 179.547 95.2331 179.544 95.2312M179.544 95.2315C179.545 95.2307 179.545 95.2299 179.546 95.2291C179.715 95.3325 180.046 95.5993 180.5 96.2141C181.624 97.7348 182.827 100.445 183.868 103.883C185.945 110.745 187.103 119.568 186.138 125.34C185.4 129.751 182.193 135.57 178.086 141.474C174.035 147.299 169.314 152.923 165.858 156.892C165.41 157.406 165.255 158.114 165.447 158.768C165.519 159.014 165.636 159.24 165.79 159.436M179.641 95.1551C179.641 95.1551 179.64 95.1554 179.638 95.1564C179.64 95.1556 179.641 95.1551 179.641 95.1551ZM168.503 98.7393C168.503 98.7393 168.502 98.7397 168.5 98.7407C168.502 98.7399 168.503 98.7394 168.503 98.7393ZM153.706 129.349C153.706 129.349 153.711 129.345 153.72 129.334C153.709 129.342 153.705 129.348 153.706 129.349ZM167.503 121.627C167.502 121.627 167.502 121.626 167.501 121.625C167.502 121.626 167.503 121.627 167.503 121.627ZM166.535 121.773C166.532 121.778 166.531 121.781 166.531 121.781C166.531 121.781 166.532 121.779 166.535 121.773ZM178.911 116.953C178.911 116.953 178.909 116.95 178.904 116.943C178.908 116.95 178.911 116.953 178.911 116.953ZM176.372 117.11C176.351 117.144 176.351 117.153 176.366 117.122C176.368 117.118 176.37 117.114 176.372 117.11Z" fill="#FF8888"/>
<path d="M206.409 218.562C218.661 251.256 238.497 230.682 234.497 282.182L189.997 283.182C186.497 276.682 168.497 300.743 144.997 248.743C140.148 238.013 122.55 169.255 122.55 169.255C122.55 169.255 183.812 154.784 188.834 154.248C193.855 153.712 200.383 202.484 206.409 218.562Z" fill="#FAF9F8"/>
<path fill-rule="evenodd" clip-rule="evenodd" d="M173.551 158.294C172.474 158.54 171.801 159.612 172.047 160.689L176.047 178.189C176.293 179.266 177.365 179.939 178.442 179.693C179.519 179.447 180.192 178.375 179.946 177.298L175.946 159.798C175.7 158.721 174.628 158.048 173.551 158.294Z" fill="#FF8888"/>
<path fill-rule="evenodd" clip-rule="evenodd" d="M158.051 160.294C156.974 160.54 156.301 161.612 156.547 162.689L160.547 180.189C160.793 181.266 161.865 181.939 162.942 181.693C164.019 181.447 164.692 180.375 164.446 179.298L160.446 161.798C160.2 160.721 159.128 160.048 158.051 160.294Z" fill="#FF8888"/>
<path fill-rule="evenodd" clip-rule="evenodd" d="M144.051 164.294C142.974 164.54 142.301 165.612 142.547 166.689L146.547 184.189C146.793 185.266 147.865 185.939 148.942 185.693C150.019 185.447 150.692 184.375 150.446 183.298L146.446 165.798C146.2 164.721 145.128 164.048 144.051 164.294Z" fill="#FF8888"/>
<path fill-rule="evenodd" clip-rule="evenodd" d="M198.209 187.571C200.755 199.725 203.405 212.379 205.986 219.264C212.274 236.044 220.599 244.016 228.044 250.543C228.526 250.966 229.003 251.381 229.474 251.792C235.861 257.357 230.686 271.635 233.604 280.448L176.451 280.822C173.997 279.682 173.717 279.648 171.575 278.38C170.893 277.976 170.167 277.576 169.391 277.148C167.366 276.032 165.002 274.729 162.187 272.682C154.553 267.13 159.913 273.685 148.269 247.92C147.127 245.392 145.158 239.234 142.813 231.234C140.487 223.299 137.837 213.714 135.336 204.454C132.835 195.196 130.485 186.271 128.761 179.661C127.898 176.356 127.192 173.63 126.702 171.73C126.608 171.367 126.522 171.034 126.445 170.733C126.649 170.685 126.868 170.633 127.1 170.579C128.785 170.182 131.197 169.615 134.107 168.932C139.928 167.568 147.74 165.743 155.709 163.901C163.679 162.059 171.801 160.201 178.242 158.771C184.024 157.487 188.306 156.582 189.981 156.31C190.102 156.478 190.261 156.735 190.452 157.108C191.037 158.253 191.686 160.034 192.384 162.38C193.77 167.042 195.23 173.517 196.738 180.592C197.224 182.869 197.714 185.21 198.209 187.571ZM124 169.255C122.062 169.75 122.063 169.751 122.063 169.751L122.063 169.754L122.262 170.527C122.392 171.034 122.583 171.779 122.829 172.73C123.32 174.632 124.027 177.362 124.89 180.671C126.617 187.288 128.969 196.224 131.474 205.497C133.978 214.768 136.637 224.384 138.974 232.359C141.293 240.27 143.342 246.73 144.624 249.567C156.48 275.802 151.51 269.863 159.835 275.917C162.872 278.126 165.586 279.622 167.648 280.758C168.36 281.151 168.454 281.361 168.997 281.682C170.108 282.34 170.497 282.682 171.708 283.439C171.708 283.439 173.497 284.682 174.745 284.843L236.951 284.182C237.774 283.735 238.177 282.777 237.92 281.877C234.788 270.88 238.897 254.684 232.194 248.854C231.691 248.417 231.186 247.978 230.68 247.535C223.485 241.227 215.695 233.774 209.731 217.861C207.27 211.292 204.703 199.047 202.149 186.868C201.649 184.481 201.149 182.096 200.65 179.758C199.145 172.697 197.656 166.074 196.218 161.24C195.503 158.837 194.771 156.77 194.014 155.288C193.641 154.557 193.202 153.847 192.67 153.305C192.158 152.782 191.268 152.131 190.071 152.259C188.672 152.409 183.747 153.452 177.375 154.866C170.917 156.3 162.782 158.161 154.808 160.004C146.834 161.847 139.017 163.673 133.194 165.038C130.282 165.721 127.869 166.288 126.184 166.685C125.341 166.883 124.68 167.039 124.23 167.145L123.541 167.308C123.541 167.308 123.54 167.308 124 169.255ZM124 169.255L123.541 167.308C123.018 167.431 122.567 167.76 122.289 168.219C122.011 168.679 121.929 169.231 122.063 169.751L124 169.255Z" fill="#FF8888"/>
<path fill-rule="evenodd" clip-rule="evenodd" d="M96.5042 72.3181C88.506 81.4454 78.2596 83.2619 73.8678 82.9711L74.1321 78.9798C77.4645 79.2005 86.4319 77.743 93.4958 69.6819L96.5042 72.3181Z" fill="#FF8888"/>
<path fill-rule="evenodd" clip-rule="evenodd" d="M115.496 72.3181C123.494 81.4454 133.74 83.2619 138.132 82.9711L137.868 78.9798C134.535 79.2005 125.568 77.743 118.504 69.6819L115.496 72.3181Z" fill="#FF8888"/>
<path fill-rule="evenodd" clip-rule="evenodd" d="M117.671 117.495C115.452 115.937 112.081 115.331 106.305 117.17C104.505 117.743 103.355 118.994 102.624 120.457C102.371 120.965 102.175 121.486 102.027 121.99L118.87 118.473C118.545 118.161 118.149 117.83 117.671 117.495ZM105.092 113.358C111.504 111.318 116.331 111.667 119.969 114.221C122.593 116.063 123.841 118.145 124.107 119.422C124.333 120.503 123.64 121.563 122.559 121.789L100.044 126.491C99.4562 126.613 98.8442 126.465 98.3772 126.087C97.9103 125.71 97.6379 125.142 97.6354 124.541C97.6291 123.051 97.9794 120.806 99.0455 118.671C100.13 116.498 102.017 114.337 105.092 113.358Z" fill="#FF8888"/>
</g>
<defs>
<clipPath id="clip0">
<rect width="253" height="291" fill="white"/>
</clipPath>
</defs>
</svg>
