<svg width="149" height="124" viewBox="0 0 149 124" fill="none" xmlns="http://www.w3.org/2000/svg">
<g clip-path="url(#clip0)">
<path d="M149.5 124H0C12.5 86 10 77 47.5 37C77.5 5 127.5 0.166667 149.5 0V124Z" fill="#A6A097"/>
<path d="M93.3948 31.3303C83.6115 34.8623 87.1916 39.9151 90.2046 42H110.941C119.182 42 121.841 38.3208 120.777 31.3303C119.714 24.3398 105.624 26.9152 93.3948 31.3303Z" fill="#958D80"/>
<path d="M63.9655 51.0215C61.1584 53.5723 65.1351 56.07 67.4743 57H86.5222C96.0461 57 88.0259 51.0215 84.0159 48.2315C80.0058 45.4415 67.4743 47.8329 63.9655 51.0215Z" fill="#958D80"/>
</g>
<defs>
<clipPath id="clip0">
<rect width="149" height="124" fill="white"/>
</clipPath>
</defs>
</svg>
