<svg width="241" height="219" viewBox="0 0 241 219" fill="none" xmlns="http://www.w3.org/2000/svg">
<g clip-path="url(#clip0)">
<path fill-rule="evenodd" clip-rule="evenodd" d="M161.246 73.4285C146.764 22.0231 133.506 -2.39166 121.469 0.184398C103.415 4.04848 77.0397 65.8891 71.9969 65.8891C66.9542 65.8891 -26.1534 46.6796 7.19551 85.1203C40.5445 123.561 64.3742 121.273 59.1209 134.099C53.8676 146.924 11.1256 190.851 32.1353 204.676C46.1417 213.892 72.9199 203.647 112.47 173.94C149.749 212.515 174.109 226.559 185.55 216.072C196.991 205.585 195.549 178.261 181.224 134.099C234.525 114.254 251.976 100.661 233.577 93.3203C215.178 85.9795 191.068 79.3489 161.246 73.4285Z" fill="#FF8888"/>
<path fill-rule="evenodd" clip-rule="evenodd" d="M110.224 81.2065C111.251 81.0163 112.238 81.6945 112.428 82.7211C112.734 84.3735 113.398 85.517 114.334 86.3093C115.29 87.1182 116.696 87.7013 118.716 87.9136C120.74 88.1263 122.208 87.8443 123.267 87.2603C124.299 86.691 125.138 85.7268 125.721 84.1777C126.089 83.2005 127.179 82.7067 128.156 83.0746C129.133 83.4426 129.627 84.533 129.259 85.5101C128.42 87.74 127.052 89.4903 125.093 90.5709C123.161 91.6369 120.855 91.9403 118.321 91.6739C115.784 91.4073 113.586 90.6294 111.891 89.1954C110.178 87.745 109.146 85.7638 108.71 83.4096C108.52 82.383 109.198 81.3966 110.224 81.2065Z" fill="#1D2541"/>
<path d="M108.525 75.9046C109.978 76.0574 111.281 75.0028 111.434 73.5491C111.586 72.0953 110.532 70.793 109.078 70.6402C107.624 70.4874 106.322 71.542 106.169 72.9957C106.016 74.4495 107.071 75.7518 108.525 75.9046Z" fill="#1D2541"/>
<path d="M131.595 78.8106C133.049 78.9634 134.351 77.9088 134.504 76.4551C134.657 75.0013 133.602 73.699 132.148 73.5462C130.695 73.3934 129.392 74.448 129.239 75.9017C129.087 77.3555 130.141 78.6578 131.595 78.8106Z" fill="#1D2541"/>
</g>
<defs>
<clipPath id="clip0">
<rect width="241" height="219" fill="white"/>
</clipPath>
</defs>
</svg>
