<svg width="200" height="183" viewBox="0 0 200 183" fill="none" xmlns="http://www.w3.org/2000/svg">
<path opacity="0.094" fill-rule="evenodd" clip-rule="evenodd" d="M4.2484 146.782C-3.48954 121.394 10.7668 98.8043 16.5486 93.3882C22.3304 87.9721 93.2155 30.9745 93.2155 36.463C93.2155 38.5599 92.2773 40.6851 90.7516 42.8317C88.2837 46.3041 88.0091 46.4891 83.9515 50.0436C77.3856 55.7956 75.7623 59.2602 78.4977 59.2602C81.2331 59.2602 99.5842 44.5165 103.492 40.4898C107.399 36.463 116.732 29.2252 120.946 29.2252C125.159 29.2252 133.926 28.8686 139.487 23.7162C145.048 18.5637 155.218 9.37467 157.072 13.9692C158.925 18.5637 155.758 22.0605 153.512 25.6428C151.266 29.2252 139.487 40.4117 139.487 43.8536C139.487 47.2955 150.428 44.5165 155.36 40.4898C160.291 36.463 194.487 3 197.009 3C199.531 3 188.854 20.4134 175.292 36.463C161.729 52.5127 131.172 80.6943 131.172 84.5953C131.172 88.4963 150.849 67.1361 153.512 67.1361C156.175 67.1361 161.448 65.5283 140.876 90.5396C120.303 115.551 113.894 122.711 110.304 127.973C106.714 133.236 107.231 132.48 107.231 135.523C107.231 138.565 107.459 146.864 95.3927 159.16C83.3263 171.457 66.0196 178.151 50.4163 180.48C34.813 182.809 11.9863 172.171 4.2484 146.782Z" fill="white"/>
<path fill-rule="evenodd" clip-rule="evenodd" d="M34.606 171.014C22.2776 166.087 14.2623 156.688 10.56 142.818C5.00648 122.013 17.203 104.101 22.0433 99.8732C26.8836 95.6453 85.9598 51.4364 85.8043 55.8866C85.7449 57.5867 84.9241 59.2834 83.6266 60.9808C81.5276 63.7263 78.1811 66.4738 74.7913 69.2411C69.3058 73.7191 62.2186 81.9256 64.4361 82.003C66.6535 82.0804 90.7389 62.5968 94.0204 59.4424C97.3019 56.288 105.073 50.6834 108.488 50.8027C111.904 50.9219 119.021 50.8809 123.675 46.8605C128.329 42.8402 136.833 35.6773 138.205 39.4551C139.578 43.2329 136.911 45.9786 134.989 48.8196C133.067 51.6607 123.202 60.3976 123.104 63.1884C123.007 65.9792 131.954 64.0355 136.066 60.9101C140.178 57.7847 168.846 31.6198 170.891 31.6912C172.935 31.7626 163.787 45.5796 152.338 58.2092C140.889 70.8388 129.087 79.3584 128.977 82.5214C128.866 85.6844 141.971 71.5862 144.13 71.6616C146.289 71.7369 148.055 75.3243 131.674 92.25C115.294 109.176 100.124 126.403 97.0647 130.569C94.0052 134.734 94.4458 134.136 94.3596 136.603C94.2734 139.07 94.2235 145.805 84.0938 155.434C73.9642 165.063 59.4553 171.881 47.0307 171.447C38.7476 171.158 34.606 171.014 34.606 171.014Z" fill="#FF8774"/>
<path fill-rule="evenodd" clip-rule="evenodd" d="M38.8761 158.752C32.1125 156.932 26.8738 152.094 23.16 144.237C17.5892 132.452 19.7678 119.212 25.4593 114.063C31.1509 108.915 45.6386 98.6047 49.7337 98.7476C53.8288 98.8906 58.7204 98.9828 60.9616 96.9155C63.2029 94.8482 68.5106 96.4498 67.433 99.3655C66.3554 102.281 66.4861 109.691 69.6358 107.903C72.7855 106.116 80.4704 98.6701 83.3672 99.9217C86.2641 101.173 86.4598 105.157 82.9958 110.554C79.5319 115.951 78.2755 117.234 80.0673 118.337C81.8591 119.44 85.2305 122.634 82.2807 131.026C79.3308 139.418 72.748 154.672 59.7459 157.796C51.0778 159.879 45.1464 160.514 41.9519 159.699L38.8761 158.752ZM80.9132 91.5026C77.5143 90.2749 76.4153 88.8932 77.6162 87.3575C79.4175 85.054 89.2414 77.4304 89.146 80.1632C89.1041 81.3628 89.1721 83.9534 86.806 86.8505C85.9876 87.8525 84.0234 89.4032 80.9132 91.5026ZM88.9077 116.754C88.1854 115.904 87.8388 115.063 87.8678 114.231C87.9114 112.983 88.493 111.326 89.5928 110.305C90.6925 109.284 95.8798 107.511 95.7924 110.012C95.7051 112.513 93.1305 115.295 91.693 116.048C90.7346 116.55 89.8062 116.786 88.9077 116.754Z" fill="#FFC26E"/>
<path fill-rule="evenodd" clip-rule="evenodd" d="M99.662 131.281C112.115 116.637 119.266 108.391 121.116 106.541C123.891 103.767 127.456 101.919 127.287 106.757C127.118 111.594 106.057 134.259 102.811 134.145C100.648 134.07 99.5979 133.115 99.662 131.281Z" fill="#FF826E"/>
<path fill-rule="evenodd" clip-rule="evenodd" d="M141.963 36.9493C139.212 36.6005 138.468 35.5897 139.732 33.917C141.629 31.4079 144.489 28.5902 146.915 30.1883C148.532 31.2537 146.881 33.5074 141.963 36.9493Z" fill="#FF8774"/>
<path fill-rule="evenodd" clip-rule="evenodd" d="M41.5895 153.851C33.0574 150.47 28.8541 146.981 28.9798 143.384C29.1683 137.988 25.6492 129.206 27.2175 124.446C28.7857 119.686 36.8616 109.917 41.0002 110.062C45.1387 110.206 52.4066 104.867 58.2857 108.959C64.1649 113.052 70.824 115.8 72.5249 122.441C74.2258 129.083 73.7935 137.279 70.8889 141.555C67.9843 145.831 65.676 149.323 59.7665 151.342C55.8269 152.688 50.8321 153.562 44.7824 153.962L41.5895 153.851Z" fill="#93897E"/>
<path fill-rule="evenodd" clip-rule="evenodd" d="M40.2687 122.836C39.6088 122.355 39.6332 121.656 40.3419 120.738C41.405 119.362 43.2433 118.365 43.1889 119.924C43.1525 120.964 42.1791 121.935 40.2687 122.836Z" fill="#6E6964"/>
<path fill-rule="evenodd" clip-rule="evenodd" d="M56.4714 118.362C57.3052 116.485 59.0328 116.179 61.6543 117.446C65.5865 119.346 68.9916 123.356 65.1377 124.037C63.5243 124.322 60.2168 125.37 58.3514 123.805C57.6146 123.187 56.9879 121.373 56.4714 118.362Z" fill="#6E6964"/>
<path fill-rule="evenodd" clip-rule="evenodd" d="M55.3276 134.72C56.4936 134.761 57.472 133.847 57.5129 132.678C57.5373 131.979 57.1468 131.844 56.6401 131.44C56.2986 131.168 55.945 130.504 55.4754 130.487C54.3094 130.446 53.331 131.361 53.2901 132.53C53.2493 133.699 54.1615 134.68 55.3276 134.72ZM51.0679 146.693C49.7052 146.462 49.2634 146.029 49.7425 145.393C50.4612 144.44 52.732 144.52 53.5671 144.549C54.4023 144.578 53.9342 146.396 53.4893 146.778C53.1927 147.032 52.3855 147.004 51.0679 146.693ZM36.0759 140.773C33.8485 140.196 32.7517 139.427 32.7853 138.464C32.8357 137.021 31.549 135.716 33.5415 134.033C35.5339 132.349 40.6242 133.335 40.5913 134.279C40.5583 135.223 41.4618 139.077 40.392 139.982C39.6788 140.585 38.2401 140.849 36.0759 140.773Z" fill="#6E6964"/>
</svg>
