<svg width="320" height="636" viewBox="0 0 320 636" fill="none" xmlns="http://www.w3.org/2000/svg">
<circle cx="229" cy="4" r="2" fill="#FAF9F8"/>
<circle cx="318" cy="82" r="2" fill="#FAF9F8"/>
<circle cx="2" cy="554" r="2" transform="rotate(-180 2 554)" fill="#FAF9F8"/>
<circle cx="108" cy="2" r="2" fill="#FAF9F8"/>
<circle cx="212" cy="634" r="2" transform="rotate(-180 212 634)" fill="#FAF9F8"/>
<circle cx="233.777" cy="313.777" r="2" transform="rotate(55.9734 233.777 313.777)" fill="#FAF9F8"/>
<circle cx="67" cy="64" r="2" fill="#FAF9F8"/>
<circle cx="253" cy="572" r="2" transform="rotate(-180 253 572)" fill="#FAF9F8"/>
<circle cx="282" cy="152" r="2" fill="#FAF9F8"/>
<circle cx="38" cy="484" r="2" transform="rotate(-180 38 484)" fill="#FAF9F8"/>
<circle cx="170" cy="50" r="2" fill="#FAF9F8"/>
<circle cx="216.229" cy="386.195" r="2" transform="rotate(55.9734 216.229 386.195)" fill="#FAF9F8"/>
<circle cx="6" cy="24" r="2" fill="#FAF9F8"/>
<circle cx="314" cy="612" r="2" transform="rotate(-180 314 612)" fill="#FAF9F8"/>
<circle cx="2" cy="112" r="2" fill="#FAF9F8"/>
<circle cx="318" cy="524" r="2" transform="rotate(-180 318 524)" fill="#FAF9F8"/>
</svg>
