<svg width="375" height="741" viewBox="0 0 375 741" fill="none" xmlns="http://www.w3.org/2000/svg">
<path d="M-0.5 31.5V-1H375V64C367.167 63.8333 344 78.8 314 76C276.5 72.5 237.071 37.5 188.5 29C168.5 25.5 104.5 28 67 37.5C37 45.1 9.5 36.6667 -0.5 31.5Z" fill="#F5F5F5"/>
<path d="M375.5 708.849V869H187.75H0V676.349C7.83334 676.516 31 661.549 61 664.349C98.5 667.849 137.929 702.849 186.5 711.349C206.5 714.849 270.5 712.349 308 702.849C338 695.249 365.5 703.682 375.5 708.849Z" fill="#F5F5F5"/>
</svg>
